<svg width="95" height="95" viewBox="0 0 95 95" fill="none" xmlns="http://www.w3.org/2000/svg">
<path d="M7.91797 11.875H31.668C35.8672 11.875 39.8945 13.5431 42.8638 16.5125C45.8332 19.4818 47.5013 23.5091 47.5013 27.7083V83.125C47.5013 79.9756 46.2502 76.9551 44.0232 74.7281C41.7962 72.5011 38.7757 71.25 35.6263 71.25H7.91797V11.875Z" stroke="white" stroke-width="6" stroke-linecap="round" stroke-linejoin="round"/>
<path d="M87.0833 11.875H63.3333C59.1341 11.875 55.1068 13.5431 52.1375 16.5125C49.1681 19.4818 47.5 23.5091 47.5 27.7083V83.125C47.5 79.9756 48.7511 76.9551 50.9781 74.7281C53.2051 72.5011 56.2256 71.25 59.375 71.25H87.0833V11.875Z" stroke="white" stroke-width="6" stroke-linecap="round" stroke-linejoin="round"/>
</svg>
