<svg width="95" height="95" viewBox="0 0 95 95" fill="none" xmlns="http://www.w3.org/2000/svg">
<path d="M79.168 27.708H15.8346C11.4624 27.708 7.91797 31.2524 7.91797 35.6247V75.208C7.91797 79.5803 11.4624 83.1247 15.8346 83.1247H79.168C83.5402 83.1247 87.0846 79.5803 87.0846 75.208V35.6247C87.0846 31.2524 83.5402 27.708 79.168 27.708Z" stroke="white" stroke-width="6" stroke-linecap="round" stroke-linejoin="round"/>
<path d="M63.3346 83.125V19.7917C63.3346 17.692 62.5006 15.6784 61.0159 14.1937C59.5312 12.7091 57.5176 11.875 55.418 11.875H39.5846C37.485 11.875 35.4714 12.7091 33.9867 14.1937C32.502 15.6784 31.668 17.692 31.668 19.7917V83.125" stroke="white" stroke-width="6" stroke-linecap="round" stroke-linejoin="round"/>
</svg>
