<svg width="95" height="95" viewBox="0 0 95 95" fill="none" xmlns="http://www.w3.org/2000/svg">
<path d="M83.125 45.5209C83.1386 50.7454 81.918 55.8992 79.5625 60.5626C76.7696 66.1508 72.4761 70.851 67.1628 74.1369C61.8495 77.4227 55.7264 79.1644 49.4792 79.1668C44.2547 79.1804 39.1009 77.9598 34.4375 75.6043L11.875 83.1251L19.3958 60.5626C17.0404 55.8992 15.8197 50.7454 15.8333 45.5209C15.8358 39.2737 17.5774 33.1506 20.8633 27.8373C24.1491 22.524 28.8493 18.2305 34.4375 15.4376C39.1009 13.0821 44.2547 11.8615 49.4792 11.8751H51.4583C59.7089 12.3303 67.5016 15.8127 73.3445 21.6556C79.1874 27.4985 82.6698 35.2912 83.125 43.5418V45.5209Z" stroke="white" stroke-width="6" stroke-linecap="round" stroke-linejoin="round"/>
</svg>
