<svg width="95" height="95" viewBox="0 0 95 95" fill="none" xmlns="http://www.w3.org/2000/svg">
<path d="M63.332 15.833H71.2487C73.3483 15.833 75.362 16.6671 76.8466 18.1517C78.3313 19.6364 79.1654 21.65 79.1654 23.7497V79.1663C79.1654 81.266 78.3313 83.2796 76.8466 84.7643C75.362 86.2489 73.3483 87.083 71.2487 87.083H23.7487C21.6491 87.083 19.6354 86.2489 18.1508 84.7643C16.6661 83.2796 15.832 81.266 15.832 79.1663V23.7497C15.832 21.65 16.6661 19.6364 18.1508 18.1517C19.6354 16.6671 21.6491 15.833 23.7487 15.833H31.6654" stroke="white" stroke-width="6" stroke-linecap="round" stroke-linejoin="round"/>
<path d="M59.3763 7.91699H35.6263C33.4402 7.91699 31.668 9.6892 31.668 11.8753V19.792C31.668 21.9781 33.4402 23.7503 35.6263 23.7503H59.3763C61.5624 23.7503 63.3346 21.9781 63.3346 19.792V11.8753C63.3346 9.6892 61.5624 7.91699 59.3763 7.91699Z" stroke="white" stroke-width="6" stroke-linecap="round" stroke-linejoin="round"/>
</svg>
