<svg width="242" height="27" viewBox="0 0 242 27" fill="none" xmlns="http://www.w3.org/2000/svg">
<path d="M220.262 26.2461C220.262 24.8631 220.262 23.5222 220.262 22.2234C220.262 20.9246 220.262 19.4694 220.262 17.858V9.12708C220.262 7.46749 220.262 5.97025 220.262 4.63536C220.262 3.30047 220.262 1.92951 220.262 0.522461C221.043 0.522461 221.963 0.522461 223.022 0.522461C224.092 0.522461 225.234 0.522461 226.449 0.522461C227.664 0.522461 228.89 0.522461 230.129 0.522461C232.222 0.522461 233.989 0.756968 235.433 1.22598C236.888 1.68297 237.988 2.45264 238.734 3.53498C239.491 4.61732 239.87 6.09051 239.87 7.95454C239.87 9.43374 239.575 10.7626 238.986 11.9412C238.409 13.1197 237.477 14.0517 236.19 14.7372C234.903 15.4227 233.22 15.7654 231.139 15.7654L233.43 13.6008L236.93 18.7599C237.471 19.5536 238.048 20.4075 238.662 21.3215C239.275 22.2234 239.87 23.1073 240.447 23.9732C241.037 24.827 241.554 25.5847 241.999 26.2461H235.27C234.621 25.2359 233.995 24.2678 233.394 23.3418C232.793 22.4158 232.21 21.5139 231.644 20.636L227.477 14.0698L230.995 16.7576H225.024V12.5184H229.317C230.279 12.5184 231.085 12.4042 231.735 12.1757C232.396 11.9352 232.895 11.5323 233.232 10.9671C233.569 10.4018 233.737 9.62615 233.737 8.64002C233.737 7.90643 233.629 7.31716 233.412 6.8722C233.196 6.41521 232.901 6.06044 232.528 5.8079C232.167 5.55535 231.759 5.38699 231.302 5.3028C230.857 5.21862 230.406 5.17653 229.949 5.17653H221.867L226.088 1.46049C226.088 2.91564 226.088 4.31066 226.088 5.64554C226.088 6.96841 226.088 8.44159 226.088 10.0651V17.858C226.088 19.4694 226.088 20.9246 226.088 22.2234C226.088 23.5222 226.088 24.8631 226.088 26.2461H220.262Z" fill="white"/>
<path d="M202.082 26.7338C199.761 26.7338 197.753 26.3791 196.057 25.6695C194.361 24.948 192.966 23.9678 191.872 22.7292C190.778 21.4785 189.96 20.0534 189.419 18.4539C188.89 16.8545 188.625 15.1708 188.625 13.403C188.625 10.9016 189.118 8.64069 190.104 6.62032C191.102 4.58792 192.582 2.97644 194.542 1.78586C196.514 0.595287 198.973 0 201.92 0C204.157 0 206.111 0.348755 207.782 1.04626C209.454 1.73175 210.843 2.68781 211.949 3.91447C213.068 5.14112 213.904 6.56019 214.457 8.17168C215.01 9.78316 215.287 11.5149 215.287 13.3669C215.287 15.9285 214.776 18.2134 213.753 20.2217C212.743 22.2301 211.258 23.8175 209.298 24.984C207.337 26.1506 204.932 26.7338 202.082 26.7338ZM201.992 21.8453C203.182 21.8453 204.223 21.6228 205.113 21.1778C206.003 20.7208 206.742 20.0955 207.331 19.3018C207.921 18.508 208.36 17.6061 208.648 16.5959C208.949 15.5737 209.099 14.4974 209.099 13.3669C209.099 12.1763 208.937 11.0699 208.612 10.0477C208.3 9.0135 207.837 8.11155 207.223 7.34188C206.622 6.57222 205.882 5.97092 205.004 5.53798C204.127 5.10504 203.122 4.88858 201.992 4.88858C200.825 4.88858 199.791 5.11106 198.889 5.55602C197.999 6.00098 197.254 6.62032 196.652 7.41404C196.051 8.19573 195.594 9.09768 195.281 10.1199C194.969 11.1421 194.812 12.2244 194.812 13.3669C194.812 14.5094 194.963 15.5917 195.263 16.6139C195.564 17.6241 196.009 18.5261 196.598 19.3198C197.2 20.1015 197.945 20.7208 198.835 21.1778C199.737 21.6228 200.789 21.8453 201.992 21.8453Z" fill="white"/>
<path d="M171.744 26.4942C171.744 25.1112 171.744 23.7703 171.744 22.4715C171.744 21.1726 171.744 19.7175 171.744 18.106V10.3132C171.744 8.65356 171.744 7.15632 171.744 5.82144C171.744 4.48655 171.744 3.11558 171.744 1.70854L173.98 5.94771H170.571C169.212 5.94771 168.009 5.94771 166.963 5.94771C165.917 5.94771 164.919 5.94771 163.969 5.94771V0.770508H185.417V5.94771C184.479 5.94771 183.487 5.94771 182.441 5.94771C181.394 5.94771 180.186 5.94771 178.815 5.94771H175.405L177.66 1.70854C177.66 3.11558 177.66 4.48655 177.66 5.82144C177.66 7.15632 177.66 8.65356 177.66 10.3132V18.106C177.66 19.7175 177.66 21.1726 177.66 22.4715C177.66 23.7703 177.66 25.1112 177.66 26.4942H171.744Z" fill="white"/>
<path d="M138.078 26.2461C138.078 24.8631 138.078 23.5222 138.078 22.2234C138.078 20.9246 138.078 19.4694 138.078 17.858V9.12708C138.078 7.46749 138.078 5.97025 138.078 4.63536C138.078 3.30047 138.078 1.92951 138.078 0.522461H143.255C144.458 2.27826 145.594 3.93785 146.665 5.50123C147.735 7.05259 148.805 8.60996 149.876 10.1733L154.061 16.2345H154.494V9.12708C154.494 7.46749 154.494 5.97025 154.494 4.63536C154.494 3.30047 154.494 1.92951 154.494 0.522461H160.068C160.068 1.92951 160.068 3.30047 160.068 4.63536C160.068 5.97025 160.068 7.46749 160.068 9.12708V17.858C160.068 19.4694 160.068 20.9246 160.068 22.2234C160.068 23.5222 160.068 24.8631 160.068 26.2461H154.945C153.958 24.803 152.924 23.2997 151.842 21.7364C150.76 20.173 149.575 18.4653 148.288 16.6133L144.049 10.48H143.634V17.858C143.634 19.4694 143.634 20.9246 143.634 22.2234C143.634 23.5222 143.634 24.8631 143.634 26.2461H138.078Z" fill="white"/>
<path d="M115.453 26.2461C115.453 24.8631 115.453 23.5222 115.453 22.2234C115.453 20.9246 115.453 19.4694 115.453 17.858V9.12708C115.453 7.46749 115.453 5.97025 115.453 4.63536C115.453 3.30047 115.453 1.92951 115.453 0.522461H132.536V5.37496C131.43 5.37496 130.239 5.37496 128.964 5.37496C127.702 5.37496 126.21 5.37496 124.491 5.37496H118.43L121.262 1.46049C121.262 2.86753 121.262 4.2385 121.262 5.57339C121.262 6.90828 121.262 8.40551 121.262 10.0651V16.9199C121.262 18.5194 121.262 19.9745 121.262 21.2854C121.262 22.5842 121.262 23.9251 121.262 25.3081L118.808 21.3936H124.924C126.355 21.3936 127.708 21.3936 128.982 21.3936C130.269 21.3936 131.508 21.3936 132.698 21.3936V26.2461H115.453ZM119.909 15.5309V11.0212H124.617C126.204 11.0212 127.563 11.0212 128.694 11.0212C129.824 11.0212 130.913 11.0212 131.959 11.0212V15.5309C130.852 15.5309 129.734 15.5309 128.604 15.5309C127.473 15.5309 126.144 15.5309 124.617 15.5309H119.909Z" fill="white"/>
<path d="M78.875 26.2461C79.0554 24.8992 79.2298 23.5523 79.3981 22.2054C79.5665 20.8584 79.7469 19.3973 79.9393 17.8219L81.0036 9.19923C81.208 7.64788 81.3944 6.1807 81.5628 4.79771C81.7312 3.41472 81.9056 1.98964 82.0859 0.522461H88.0929C88.6702 1.98964 89.2174 3.39668 89.7345 4.74359C90.2636 6.07848 90.7868 7.40735 91.3039 8.73022L94.3705 16.5952H94.7674L97.7438 8.74826C98.2489 7.41337 98.748 6.09051 99.2411 4.77967C99.7462 3.46884 100.275 2.04977 100.828 0.522461H106.763C106.944 1.96558 107.118 3.37864 107.286 4.76163C107.467 6.14462 107.659 7.62984 107.864 9.21727L108.964 17.876C109.157 19.4394 109.337 20.8825 109.505 22.2054C109.686 23.5282 109.86 24.8751 110.028 26.2461H104.382C104.166 24.4422 103.955 22.7285 103.751 21.105C103.546 19.4815 103.36 17.9602 103.192 16.5411L102.434 10.4439H102.037L99.8003 16.9921C99.2591 18.6036 98.7119 20.203 98.1587 21.7905C97.6175 23.3659 97.1125 24.8511 96.6434 26.2461H92.7109C92.3742 25.3442 92.0074 24.3761 91.6106 23.3418C91.2257 22.3076 90.8289 21.2553 90.42 20.185C90.0111 19.1027 89.6082 18.0444 89.2114 17.0101L86.722 10.4439H86.3251L85.5855 16.505C85.4172 17.9361 85.2307 19.4694 85.0263 21.105C84.8339 22.7285 84.6294 24.4422 84.413 26.2461H78.875Z" fill="white"/>
<path d="M62.0118 26.7338C59.6908 26.7338 57.6824 26.3791 55.9868 25.6695C54.2911 24.948 52.8961 23.9678 51.8017 22.7292C50.7073 21.4785 49.8896 20.0534 49.3484 18.4539C48.8193 16.8545 48.5547 15.1708 48.5547 13.403C48.5547 10.9016 49.0478 8.64069 50.0339 6.62032C51.032 4.58792 52.5112 2.97644 54.4715 1.78586C56.4438 0.595287 58.9031 0 61.8494 0C64.0863 0 66.0405 0.348755 67.7121 1.04626C69.3837 1.73175 70.7728 2.68781 71.8791 3.91447C72.9976 5.14112 73.8334 6.56019 74.3866 8.17168C74.9398 9.78316 75.2164 11.5149 75.2164 13.3669C75.2164 15.9285 74.7053 18.2134 73.683 20.2217C72.6729 22.2301 71.1877 23.8175 69.2274 24.984C67.2672 26.1506 64.862 26.7338 62.0118 26.7338ZM61.9216 21.8453C63.1122 21.8453 64.1524 21.6228 65.0424 21.1778C65.9323 20.7208 66.6719 20.0955 67.2612 19.3018C67.8504 18.508 68.2894 17.6061 68.578 16.5959C68.8787 15.5737 69.029 14.4974 69.029 13.3669C69.029 12.1763 68.8666 11.0699 68.5419 10.0477C68.2293 9.0135 67.7662 8.11155 67.1529 7.34188C66.5516 6.57222 65.812 5.97092 64.9341 5.53798C64.0562 5.10504 63.052 4.88858 61.9216 4.88858C60.7551 4.88858 59.7208 5.11106 58.8189 5.55602C57.929 6.00098 57.1834 6.62032 56.5821 7.41404C55.9808 8.19573 55.5238 9.09768 55.2111 10.1199C54.8984 11.1421 54.7421 12.2244 54.7421 13.3669C54.7421 14.5094 54.8924 15.5917 55.193 16.6139C55.4937 17.6241 55.9387 18.5261 56.5279 19.3198C57.1292 20.1015 57.8748 20.7208 58.7648 21.1778C59.6667 21.6228 60.719 21.8453 61.9216 21.8453Z" fill="white"/>
<path d="M24.5117 26.4942C24.5117 25.1112 24.5117 23.7703 24.5117 22.4715C24.5117 21.1726 24.5117 19.7175 24.5117 18.106V9.37512C24.5117 7.71553 24.5117 6.21829 24.5117 4.88341C24.5117 3.54852 24.5117 2.17755 24.5117 0.770508C25.2934 0.770508 26.2134 0.770508 27.2717 0.770508C28.342 0.770508 29.4845 0.770508 30.6991 0.770508C31.9137 0.770508 33.1404 0.770508 34.3791 0.770508C36.4716 0.770508 38.2394 1.00502 39.6825 1.47403C41.1377 1.93102 42.2381 2.70068 42.9837 3.78303C43.7413 4.86537 44.1201 6.33855 44.1201 8.20259C44.1201 9.68179 43.8255 11.0107 43.2362 12.1892C42.659 13.3678 41.727 14.2998 40.4402 14.9853C39.1534 15.6707 37.4698 16.0135 35.3892 16.0135L37.6802 13.8488L41.1798 19.008C41.7209 19.8017 42.2982 20.6555 42.9115 21.5695C43.5248 22.4715 44.1201 23.3554 44.6974 24.2212C45.2867 25.0751 45.8038 25.8327 46.2487 26.4942H39.5202C38.8708 25.484 38.2454 24.5159 37.6441 23.5899C37.0428 22.6639 36.4596 21.7619 35.8943 20.884L31.7273 14.3178L35.2449 17.0056H29.274V12.7665H33.5673C34.5294 12.7665 35.3351 12.6522 35.9845 12.4237C36.646 12.1832 37.145 11.7803 37.4818 11.2151C37.8185 10.6499 37.9869 9.8742 37.9869 8.88807C37.9869 8.15448 37.8786 7.56521 37.6622 7.12025C37.4457 6.66326 37.1511 6.30849 36.7783 6.05594C36.4175 5.8034 36.0086 5.63503 35.5516 5.55085C35.1066 5.46667 34.6557 5.42458 34.1987 5.42458H26.1172L30.3383 1.70854C30.3383 3.16369 30.3383 4.5587 30.3383 5.89359C30.3383 7.21645 30.3383 8.68964 30.3383 10.3132V18.106C30.3383 19.7175 30.3383 21.1726 30.3383 22.4715C30.3383 23.7703 30.3383 25.1112 30.3383 26.4942H24.5117Z" fill="white"/>
<path d="M0 26.4942C0 25.1112 0 23.7703 0 22.4715C0 21.1726 0 19.7175 0 18.106V9.37512C0 7.71553 0 6.21829 0 4.88341C0 3.54852 0 2.17755 0 0.770508C1.04626 0.770508 2.44729 0.770508 4.20309 0.770508C5.97092 0.770508 8.00932 0.770508 10.3183 0.770508C12.3988 0.770508 14.1366 1.02907 15.5316 1.54619C16.9386 2.06331 17.9909 2.91715 18.6884 4.10773C19.398 5.28628 19.7527 6.87371 19.7527 8.87003C19.7527 10.5657 19.4521 12.0629 18.8508 13.3617C18.2495 14.6485 17.2754 15.6587 15.9285 16.3923C14.5815 17.1139 12.8017 17.4746 10.5889 17.4746C9.99963 17.4746 9.36826 17.4746 8.69481 17.4746C8.03338 17.4746 7.38397 17.4746 6.74659 17.4746C6.10921 17.4746 5.56203 17.4746 5.10504 17.4746V12.9649H9.23598C10.2702 12.9649 11.118 12.8266 11.7795 12.55C12.4409 12.2734 12.928 11.8465 13.2406 11.2692C13.5653 10.6799 13.7277 9.92231 13.7277 8.9963C13.7277 8.26272 13.6134 7.66142 13.385 7.1924C13.1685 6.72339 12.8738 6.36261 12.501 6.11006C12.1282 5.85751 11.7133 5.68314 11.2563 5.58693C10.8114 5.47869 10.3604 5.42458 9.90342 5.42458H3.01252L5.84464 1.70854C5.84464 3.11558 5.84464 4.48655 5.84464 5.82144C5.84464 7.15632 5.84464 8.65356 5.84464 10.3132V18.106C5.84464 19.7175 5.84464 21.1726 5.84464 22.4715C5.84464 23.7703 5.84464 25.1112 5.84464 26.4942H0Z" fill="white"/>
</svg>
