<svg width="67" height="60" viewBox="0 0 67 60" fill="none" xmlns="http://www.w3.org/2000/svg">
<path d="M17.6705 12.7012C-1.10685 13.8057 -6.79474 64.7244 31.2009 59.6435C45.8347 57.6867 79.5227 19.6045 17.6705 12.7012Z" fill="#FFCAB8"/>
<path d="M46.1137 21.2621C45.6719 30.0983 49.6114 33.2278 51.6363 33.688L60.4728 27.0609C60.4728 -6.51671 28.7177 1.93292 0 0C0.44181 20.986 4.4181 21.2621 46.1137 21.2621Z" fill="#231337"/>
<path d="M50.5244 32.582C45.8402 37.8286 47.5985 53.3472 59.0856 46.941C73.4444 38.9332 66.538 14.6335 50.5244 32.582Z" fill="#FFCAB8"/>
<path fill-rule="evenodd" clip-rule="evenodd" d="M16.2399 41.1192C15.4639 41.6042 15.2281 42.6264 15.713 43.4023C16.7076 44.9936 17.9676 46.0472 19.4006 46.6126C20.8163 47.1713 22.276 47.2049 23.6137 46.9732C26.2388 46.5186 28.6455 45.003 30.0698 43.7821C30.7646 43.1866 30.845 42.1407 30.2495 41.446C29.6541 40.7512 28.6081 40.6708 27.9134 41.2663C26.7605 42.2545 24.8872 43.3897 23.0482 43.7083C22.1538 43.8632 21.3354 43.8139 20.6169 43.5304C19.9156 43.2536 19.1852 42.7057 18.5229 41.6461C18.038 40.8702 17.0158 40.6343 16.2399 41.1192Z" fill="#231337"/>
<circle cx="37.5509" cy="38.1056" r="4.4181" fill="#FF9B9B"/>
<circle cx="9.39076" cy="38.1056" r="4.4181" fill="#FF9B9B"/>
<circle cx="13.5365" cy="31.7553" r="4.14197" fill="#231337"/>
<path d="M36.6963 35.621C37.7808 35.621 38.691 34.7175 38.3307 33.6946C38.0453 32.8843 37.5806 32.1397 36.9616 31.5207C35.8741 30.4332 34.3992 29.8223 32.8613 29.8223C31.3233 29.8223 29.8484 30.4332 28.7609 31.5207C28.1419 32.1397 27.6773 32.8843 27.3918 33.6946C27.0315 34.7175 27.9417 35.621 29.0262 35.621H29.5202C30.3319 35.621 30.9641 34.8717 31.538 34.2978C31.889 33.9468 32.3649 33.7497 32.8613 33.7497C33.3576 33.7497 33.8336 33.9468 34.1845 34.2978C34.7585 34.8717 35.3906 35.621 36.2023 35.621H36.6963Z" fill="#231337"/>
</svg>
