<svg width="640" height="86" viewBox="0 0 640 86" fill="none" xmlns="http://www.w3.org/2000/svg">
<path d="M466.848 70.2418C466.848 68.2021 466.848 66.2245 466.848 64.309C466.848 62.3934 466.848 60.2473 466.848 57.8707V44.9941C466.848 42.5465 466.848 40.3383 466.848 38.3695C466.848 36.4008 466.848 34.3789 466.848 32.3037C468.001 32.3037 469.357 32.3037 470.918 32.3037C472.497 32.3037 474.182 32.3037 475.973 32.3037C477.764 32.3037 479.573 32.3037 481.4 32.3037C484.486 32.3037 487.094 32.6496 489.222 33.3413C491.368 34.0153 492.991 35.1504 494.091 36.7467C495.208 38.3429 495.767 40.5156 495.767 43.2648C495.767 45.4464 495.332 47.4062 494.463 49.1444C493.612 50.8825 492.237 52.2571 490.339 53.2681C488.442 54.2791 485.959 54.7845 482.89 54.7845L486.269 51.592L491.43 59.2009C492.228 60.3715 493.08 61.6308 493.984 62.9787C494.889 64.309 495.767 65.6126 496.618 66.8896C497.487 68.1489 498.25 69.2663 498.906 70.2418H488.983C488.025 68.7519 487.103 67.3241 486.216 65.9584C485.329 64.5927 484.469 63.2625 483.635 61.9678L477.489 52.2837L482.677 56.2478H473.871V49.9957H480.203C481.622 49.9957 482.81 49.8272 483.768 49.4902C484.744 49.1355 485.48 48.5413 485.976 47.7077C486.473 46.8741 486.721 45.7301 486.721 44.2758C486.721 43.1938 486.562 42.3248 486.242 41.6685C485.923 40.9945 485.489 40.4713 484.939 40.0988C484.407 39.7264 483.804 39.4781 483.13 39.3539C482.473 39.2298 481.808 39.1677 481.134 39.1677H469.215L475.441 33.6871C475.441 35.8332 475.441 37.8907 475.441 39.8594C475.441 41.8104 475.441 43.9831 475.441 46.3775V57.8707C475.441 60.2473 475.441 62.3934 475.441 64.309C475.441 66.2245 475.441 68.2021 475.441 70.2418H466.848Z" fill="#231337"/>
<path d="M440.034 70.9611C436.611 70.9611 433.649 70.4379 431.149 69.3915C428.648 68.3273 426.59 66.8818 424.976 65.0549C423.362 63.2103 422.156 61.1086 421.358 58.7496C420.578 56.3907 420.188 53.9076 420.188 51.3004C420.188 47.6112 420.915 44.2768 422.369 41.2971C423.841 38.2996 426.023 35.9229 428.914 34.1671C431.823 32.4112 435.45 31.5332 439.795 31.5332C443.094 31.5332 445.976 32.0476 448.442 33.0763C450.907 34.0872 452.955 35.4973 454.587 37.3064C456.237 39.1155 457.469 41.2084 458.285 43.5851C459.101 45.9617 459.509 48.5158 459.509 51.2472C459.509 55.025 458.755 58.3949 457.248 61.3569C455.758 64.3189 453.567 66.6601 450.676 68.3805C447.785 70.1009 444.238 70.9611 440.034 70.9611ZM439.901 63.7513C441.657 63.7513 443.192 63.4232 444.504 62.7669C445.817 62.093 446.907 61.1707 447.776 60.0001C448.645 58.8295 449.293 57.4992 449.719 56.0094C450.162 54.5018 450.384 52.9144 450.384 51.2472C450.384 49.4913 450.144 47.8595 449.665 46.3519C449.204 44.8266 448.521 43.4964 447.617 42.3612C446.73 41.2261 445.639 40.3393 444.344 39.7008C443.05 39.0623 441.569 38.743 439.901 38.743C438.181 38.743 436.656 39.0712 435.325 39.7274C434.013 40.3836 432.913 41.2971 432.027 42.4677C431.14 43.6205 430.466 44.9508 430.005 46.4583C429.543 47.9659 429.313 49.5622 429.313 51.2472C429.313 52.9321 429.535 54.5284 429.978 56.036C430.421 57.5258 431.078 58.8561 431.947 60.0267C432.834 61.1795 433.933 62.093 435.246 62.7669C436.576 63.4232 438.128 63.7513 439.901 63.7513Z" fill="#231337"/>
<path d="M394.537 70.607C394.537 68.5673 394.537 66.5897 394.537 64.6742C394.537 62.7587 394.537 60.6126 394.537 58.2359V46.7427C394.537 44.2951 394.537 42.087 394.537 40.1182C394.537 38.1495 394.537 36.1275 394.537 34.0524L397.836 40.3044H392.808C390.803 40.3044 389.03 40.3044 387.487 40.3044C385.944 40.3044 384.471 40.3044 383.07 40.3044V32.6689H414.703V40.3044C413.32 40.3044 411.856 40.3044 410.313 40.3044C408.77 40.3044 406.988 40.3044 404.966 40.3044H399.938L403.263 34.0524C403.263 36.1275 403.263 38.1495 403.263 40.1182C403.263 42.087 403.263 44.2951 403.263 46.7427V58.2359C403.263 60.6126 403.263 62.7587 403.263 64.6742C403.263 66.5897 403.263 68.5673 403.263 70.607H394.537Z" fill="#231337"/>
<path d="M344.883 70.2418C344.883 68.2021 344.883 66.2245 344.883 64.309C344.883 62.3934 344.883 60.2473 344.883 57.8707V44.9941C344.883 42.5465 344.883 40.3383 344.883 38.3695C344.883 36.4008 344.883 34.3789 344.883 32.3037H352.518C354.292 34.8932 355.968 37.3408 357.547 39.6466C359.125 41.9346 360.704 44.2314 362.282 46.5371L368.454 55.4763H369.093V44.9941C369.093 42.5465 369.093 40.3383 369.093 38.3695C369.093 36.4008 369.093 34.3789 369.093 32.3037H377.314C377.314 34.3789 377.314 36.4008 377.314 38.3695C377.314 40.3383 377.314 42.5465 377.314 44.9941V57.8707C377.314 60.2473 377.314 62.3934 377.314 64.309C377.314 66.2245 377.314 68.2021 377.314 70.2418H369.758C368.304 68.1134 366.778 65.8964 365.182 63.5906C363.586 61.2849 361.839 58.7664 359.941 56.035L353.689 46.9894H353.077V57.8707C353.077 60.2473 353.077 62.3934 353.077 64.309C353.077 66.2245 353.077 68.2021 353.077 70.2418H344.883Z" fill="#231337"/>
<path d="M311.512 70.2418C311.512 68.2021 311.512 66.2245 311.512 64.309C311.512 62.3934 311.512 60.2473 311.512 57.8707V44.9941C311.512 42.5465 311.512 40.3383 311.512 38.3695C311.512 36.4008 311.512 34.3789 311.512 32.3037H336.706V39.4603C335.074 39.4603 333.319 39.4603 331.439 39.4603C329.576 39.4603 327.377 39.4603 324.841 39.4603H315.901L320.078 33.6871C320.078 35.7623 320.078 37.7842 320.078 39.753C320.078 41.7217 320.078 43.9299 320.078 46.3775V56.4872C320.078 58.8462 320.078 60.9923 320.078 62.9255C320.078 64.8411 320.078 66.8187 320.078 68.8583L316.46 63.0852H325.479C327.59 63.0852 329.585 63.0852 331.465 63.0852C333.363 63.0852 335.19 63.0852 336.946 63.0852V70.2418H311.512ZM318.083 54.4387V47.7875H325.027C327.368 47.7875 329.372 47.7875 331.039 47.7875C332.707 47.7875 334.312 47.7875 335.855 47.7875V54.4387C334.223 54.4387 332.574 54.4387 330.906 54.4387C329.239 54.4387 327.279 54.4387 325.027 54.4387H318.083Z" fill="#231337"/>
<path d="M257.57 70.2418C257.836 68.2553 258.094 66.2688 258.342 64.2824C258.59 62.2959 258.856 60.1409 259.14 57.8175L260.71 45.1005C261.011 42.8125 261.286 40.6487 261.534 38.609C261.783 36.5693 262.04 34.4675 262.306 32.3037H271.165C272.017 34.4675 272.824 36.5427 273.586 38.5292C274.367 40.4979 275.138 42.4578 275.901 44.4088L280.424 56.0083H281.009L285.399 44.4354C286.144 42.4666 286.88 40.5156 287.607 38.5824C288.352 36.6491 289.132 34.5562 289.948 32.3037H298.701C298.967 34.4321 299.224 36.5161 299.472 38.5558C299.739 40.5955 300.022 42.7859 300.324 45.1271L301.947 57.8973C302.23 60.203 302.497 62.3314 302.745 64.2824C303.011 66.2334 303.268 68.2198 303.516 70.2418H295.189C294.87 67.5813 294.559 65.0539 294.258 62.6595C293.956 60.2651 293.682 58.0214 293.433 55.9285L292.316 46.9362H291.731L288.432 56.5936C287.633 58.9703 286.826 61.3293 286.011 63.6705C285.212 65.9939 284.468 68.1844 283.776 70.2418H277.976C277.479 68.9115 276.938 67.4838 276.353 65.9584C275.786 64.4331 275.2 62.8812 274.597 61.3027C273.994 59.7064 273.4 58.1456 272.815 56.6203L269.143 46.9362H268.558L267.467 55.8753C267.219 57.986 266.944 60.2473 266.642 62.6595C266.359 65.0539 266.057 67.5813 265.738 70.2418H257.57Z" fill="#231337"/>
<path d="M232.699 70.9611C229.275 70.9611 226.313 70.4379 223.813 69.3915C221.312 68.3273 219.254 66.8818 217.64 65.0549C216.026 63.2103 214.82 61.1086 214.022 58.7496C213.242 56.3907 212.852 53.9076 212.852 51.3004C212.852 47.6112 213.579 44.2768 215.033 41.2971C216.505 38.2996 218.687 35.9229 221.578 34.1671C224.487 32.4112 228.114 31.5332 232.459 31.5332C235.758 31.5332 238.64 32.0476 241.106 33.0763C243.571 34.0872 245.619 35.4973 247.251 37.3064C248.901 39.1155 250.133 41.2084 250.949 43.5851C251.765 45.9617 252.173 48.5158 252.173 51.2472C252.173 55.025 251.419 58.3949 249.912 61.3569C248.422 64.3189 246.231 66.6601 243.34 68.3805C240.449 70.1009 236.902 70.9611 232.699 70.9611ZM232.566 63.7513C234.321 63.7513 235.856 63.4232 237.168 62.7669C238.481 62.093 239.571 61.1707 240.44 60.0001C241.31 58.8295 241.957 57.4992 242.383 56.0094C242.826 54.5018 243.048 52.9144 243.048 51.2472C243.048 49.4913 242.808 47.8595 242.329 46.3519C241.868 44.8266 241.185 43.4964 240.281 42.3612C239.394 41.2261 238.303 40.3393 237.008 39.7008C235.714 39.0623 234.233 38.743 232.566 38.743C230.845 38.743 229.32 39.0712 227.99 39.7274C226.677 40.3836 225.577 41.2971 224.691 42.4677C223.804 43.6205 223.13 44.9508 222.669 46.4583C222.207 47.9659 221.977 49.5622 221.977 51.2472C221.977 52.9321 222.199 54.5284 222.642 56.036C223.085 57.5258 223.742 58.8561 224.611 60.0267C225.498 61.1795 226.597 62.093 227.91 62.7669C229.24 63.4232 230.792 63.7513 232.566 63.7513Z" fill="#231337"/>
<path d="M177.391 70.607C177.391 68.5673 177.391 66.5897 177.391 64.6742C177.391 62.7587 177.391 60.6126 177.391 58.2359V45.3593C177.391 42.9117 177.391 40.7035 177.391 38.7348C177.391 36.766 177.391 34.7441 177.391 32.6689C178.543 32.6689 179.9 32.6689 181.461 32.6689C183.04 32.6689 184.725 32.6689 186.516 32.6689C188.307 32.6689 190.116 32.6689 191.943 32.6689C195.029 32.6689 197.637 33.0148 199.765 33.7065C201.911 34.3805 203.534 35.5156 204.634 37.1119C205.751 38.7082 206.31 40.8809 206.31 43.63C206.31 45.8116 205.875 47.7715 205.006 49.5096C204.155 51.2478 202.78 52.6223 200.882 53.6333C198.985 54.6443 196.502 55.1498 193.433 55.1498L196.812 51.9572L201.973 59.5661C202.771 60.7367 203.623 61.996 204.527 63.344C205.432 64.6742 206.31 65.9778 207.161 67.2548C208.03 68.5141 208.793 69.6315 209.449 70.607H199.526C198.568 69.1172 197.646 67.6894 196.759 66.3237C195.872 64.958 195.012 63.6278 194.178 62.333L188.032 52.649L193.22 56.613H184.414V50.361H190.746C192.165 50.361 193.353 50.1925 194.311 49.8555C195.287 49.5007 196.023 48.9066 196.519 48.073C197.016 47.2394 197.264 46.0954 197.264 44.641C197.264 43.5591 197.105 42.69 196.785 42.0337C196.466 41.3598 196.032 40.8365 195.482 40.4641C194.95 40.0916 194.347 39.8433 193.673 39.7191C193.016 39.595 192.351 39.5329 191.677 39.5329H179.758L185.984 34.0524C185.984 36.1985 185.984 38.2559 185.984 40.2246C185.984 42.1756 185.984 44.3483 185.984 46.7427V58.2359C185.984 60.6126 185.984 62.7587 185.984 64.6742C185.984 66.5897 185.984 68.5673 185.984 70.607H177.391Z" fill="#231337"/>
<path d="M141.238 70.607C141.238 68.5673 141.238 66.5897 141.238 64.6742C141.238 62.7587 141.238 60.6126 141.238 58.2359V45.3593C141.238 42.9117 141.238 40.7035 141.238 38.7348C141.238 36.766 141.238 34.7441 141.238 32.6689C142.781 32.6689 144.848 32.6689 147.437 32.6689C150.044 32.6689 153.051 32.6689 156.456 32.6689C159.524 32.6689 162.087 33.0503 164.145 33.8129C166.22 34.5756 167.772 35.8349 168.801 37.5908C169.847 39.3289 170.37 41.6701 170.37 44.6144C170.37 47.1152 169.927 49.3234 169.04 51.2389C168.153 53.1367 166.717 54.6266 164.73 55.7085C162.744 56.7727 160.119 57.3047 156.855 57.3047C155.986 57.3047 155.055 57.3047 154.062 57.3047C153.086 57.3047 152.128 57.3047 151.188 57.3047C150.248 57.3047 149.441 57.3047 148.767 57.3047V50.6536H154.86C156.385 50.6536 157.636 50.4496 158.611 50.0417C159.587 49.6338 160.305 49.0041 160.766 48.1528C161.245 47.2837 161.484 46.1663 161.484 44.8006C161.484 43.7187 161.316 42.8319 160.979 42.1402C160.66 41.4484 160.225 40.9164 159.675 40.5439C159.125 40.1714 158.513 39.9142 157.84 39.7724C157.183 39.6127 156.518 39.5329 155.844 39.5329H145.681L149.858 34.0524C149.858 36.1275 149.858 38.1495 149.858 40.1182C149.858 42.087 149.858 44.2951 149.858 46.7427V58.2359C149.858 60.6126 149.858 62.7587 149.858 64.6742C149.858 66.5897 149.858 68.5673 149.858 70.607H141.238Z" fill="#231337"/>
<path fill-rule="evenodd" clip-rule="evenodd" d="M598.65 36.7167C598.413 32.4734 608.491 22.8506 614.822 19.0971C617.643 16.2769 625.915 14.3918 629.081 17.5575C632.247 20.7232 632.117 26.287 629.297 29.1073C620.755 36.178 605.781 40.2536 600.547 38.7021C597.69 39.8045 594.723 40.8325 591.68 41.7902C595.813 42.2655 600.411 43.4302 603.091 44.7744C606.245 46.3561 609.037 50.8134 607.755 53.8489C606.473 56.8845 602.142 58.6549 597.359 56.6346C594.948 55.616 584.39 48.0564 583.039 44.2781C579.173 45.2962 575.241 46.2148 571.304 47.0417C576.296 48.0427 582.395 50.5986 586.29 55.1957C588.62 57.5258 588.826 61.0975 586.75 63.1733C584.674 65.2491 579.929 64.4179 577.599 62.0878C571.594 57.9201 563.905 51.717 562.97 48.6607C557.718 49.602 552.525 50.3902 547.537 51.0423C551.783 54.9093 558.347 64.5649 559.214 67.8004C560.336 71.9863 558.946 75.9956 556.111 76.7554C553.275 77.5152 550.067 74.7378 548.945 70.5519C548.705 69.654 548.237 68.2049 547.678 66.475L547.678 66.4744C546.15 61.7417 543.944 54.9073 543.854 51.5042C533.314 52.7697 523.906 53.4196 517.117 53.6267C516.418 53.648 515.834 53.099 515.813 52.4003C515.792 51.7017 516.341 51.118 517.039 51.0967C523.783 50.891 533.159 50.2425 543.665 48.9776C542.946 46.8593 543.981 40.5702 544.914 34.9008C545.198 33.1717 545.473 31.5003 545.686 30.0223C547 24.1674 548.024 20.7485 550.859 19.9887C553.695 19.2289 558.64 22.6208 557.409 29.7637C558.379 33.3837 550.262 45.0745 546.216 48.661C551.371 48.002 556.761 47.1961 562.219 46.2237C560.933 41.9337 564.172 25.0962 565.683 21.52C567.369 17.528 572.041 15.6372 574.745 16.7796C577.45 17.9219 578.303 25.0803 576.616 29.0723C575.331 32.1151 569.584 41.6977 565.726 45.577C570.908 44.589 576.105 43.4506 581.177 42.1468C581.065 38.8795 584.865 30.3962 587.016 25.5944C587.476 24.5678 587.861 23.7094 588.115 23.1063C590.362 17.7874 595.744 16.0975 598.448 17.2398C601.153 18.3822 601.978 22.5444 600.291 26.5364C599.166 29.2015 592.491 36.3392 587.373 40.4499C591.267 39.3142 595.049 38.0722 598.65 36.7167Z" fill="#89A598"/>
<path fill-rule="evenodd" clip-rule="evenodd" d="M41.3503 36.7167C41.5872 32.4734 31.5089 22.8506 25.1777 19.0971C22.3574 16.2769 14.0848 14.3918 10.919 17.5575C7.7533 20.7232 7.88305 26.287 10.7033 29.1073C19.2449 36.178 34.2191 40.2536 39.4533 38.7021C42.3101 39.8045 45.2772 40.8325 48.3204 41.7902C44.1873 42.2655 39.5894 43.4302 36.9091 44.7744C33.755 46.3561 30.9625 50.8134 32.2448 53.8489C33.5271 56.8845 37.8579 58.6549 42.6407 56.6346C45.0518 55.616 55.6097 48.0564 56.9612 44.2781C60.8268 45.2962 64.7593 46.2148 68.6961 47.0417C63.7037 48.0427 57.6045 50.5986 53.7102 55.1957C51.3801 57.5258 51.174 61.0975 53.2498 63.1733C55.3256 65.2491 60.0712 64.4179 62.4013 62.0878C68.4059 57.9201 76.0945 51.717 77.0299 48.6607C82.2817 49.602 87.475 50.3902 92.4626 51.0423C88.217 54.9093 81.6528 64.5649 80.7859 67.8004C79.6643 71.9863 81.0538 75.9956 83.8894 76.7554C86.725 77.5152 89.933 74.7378 91.0546 70.5519C91.2952 69.654 91.763 68.2049 92.3215 66.475L92.3217 66.4744C93.8497 61.7417 96.0562 54.9073 96.1458 51.5042C106.686 52.7697 116.094 53.4196 122.883 53.6267C123.582 53.648 124.166 53.099 124.187 52.4003C124.208 51.7017 123.659 51.118 122.961 51.0967C116.217 50.891 106.841 50.2425 96.3354 48.9776C97.054 46.8593 96.0191 40.5702 95.0862 34.9008C94.8016 33.1717 94.5266 31.5003 94.3136 30.0223C92.9999 24.1674 91.9764 20.7485 89.1408 19.9887C86.3052 19.2289 81.3602 22.6208 82.5909 29.7637C81.6209 33.3837 89.7379 45.0745 93.7845 48.661C88.6292 48.002 83.2386 47.1961 77.7815 46.2237C79.0673 41.9337 75.8277 25.0962 74.317 21.52C72.6307 17.528 67.959 15.6372 65.2547 16.7796C62.5504 17.9219 61.6975 25.0803 63.3838 29.0723C64.6692 32.1151 70.4158 41.6977 74.2735 45.577C69.0918 44.589 63.8954 43.4506 58.8233 42.1468C58.9346 38.8795 55.1346 30.3962 52.9836 25.5944C52.5238 24.5678 52.1393 23.7094 51.8845 23.1063C49.6377 17.7874 44.256 16.0975 41.5517 17.2398C38.8475 18.3822 38.0223 22.5444 39.7086 26.5364C40.8344 29.2015 47.509 36.3392 52.6265 40.4499C48.7326 39.3142 44.9513 38.0722 41.3503 36.7167Z" fill="#89A598"/>
</svg>
