<svg width="1263" height="169" viewBox="0 0 1263 169" fill="none" xmlns="http://www.w3.org/2000/svg">
<path d="M978.015 163.505C977.786 163.505 977.589 163.429 977.424 163.276C977.271 163.111 977.195 162.914 977.195 162.685V148.614H978.835V162.685C978.835 162.914 978.758 163.111 978.606 163.276C978.453 163.429 978.256 163.505 978.015 163.505ZM972.81 150.121C972.581 150.121 972.396 150.051 972.257 149.911C972.117 149.758 972.047 149.58 972.047 149.377C972.047 149.148 972.117 148.964 972.257 148.824C972.396 148.684 972.581 148.614 972.81 148.614H983.239C983.468 148.614 983.652 148.684 983.792 148.824C983.932 148.964 984.002 149.148 984.002 149.377C984.002 149.58 983.932 149.758 983.792 149.911C983.652 150.051 983.468 150.121 983.239 150.121H972.81Z" fill="#231337"/>
<path d="M952.531 163.505C952.289 163.505 952.092 163.429 951.94 163.276C951.787 163.124 951.711 162.927 951.711 162.685V149.434C951.711 149.193 951.787 148.996 951.94 148.843C952.092 148.691 952.289 148.614 952.531 148.614C952.772 148.614 952.969 148.691 953.122 148.843C953.274 148.996 953.351 149.193 953.351 149.434V155.23H962.522V149.434C962.522 149.193 962.598 148.996 962.75 148.843C962.903 148.691 963.1 148.614 963.341 148.614C963.57 148.614 963.761 148.691 963.913 148.843C964.066 148.996 964.142 149.193 964.142 149.434V162.685C964.142 162.927 964.066 163.124 963.913 163.276C963.761 163.429 963.57 163.505 963.341 163.505C963.1 163.505 962.903 163.429 962.75 163.276C962.598 163.124 962.522 162.927 962.522 162.685V156.698H953.351V162.685C953.351 162.927 953.274 163.124 953.122 163.276C952.969 163.429 952.772 163.505 952.531 163.505Z" fill="#231337"/>
<path d="M933.57 163.505C933.328 163.505 933.131 163.429 932.979 163.276C932.826 163.124 932.75 162.927 932.75 162.685V149.434C932.75 149.193 932.826 148.996 932.979 148.843C933.131 148.691 933.328 148.614 933.57 148.614H942.417C942.645 148.614 942.836 148.691 942.989 148.843C943.141 148.983 943.217 149.167 943.217 149.396C943.217 149.612 943.141 149.796 942.989 149.949C942.836 150.089 942.645 150.159 942.417 150.159H934.39V155.23H940.205C940.446 155.23 940.644 155.307 940.796 155.459C940.949 155.612 941.025 155.796 941.025 156.012C941.025 156.241 940.949 156.432 940.796 156.584C940.644 156.724 940.446 156.794 940.205 156.794H934.39V161.961H942.417C942.645 161.961 942.836 162.037 942.989 162.19C943.141 162.329 943.217 162.507 943.217 162.723C943.217 162.952 943.141 163.143 942.989 163.295C942.836 163.435 942.645 163.505 942.417 163.505H933.57Z" fill="#231337"/>
<path d="M918.847 163.505C918.618 163.505 918.421 163.429 918.256 163.276C918.103 163.111 918.027 162.914 918.027 162.685V148.614H919.667V162.685C919.667 162.914 919.59 163.111 919.438 163.276C919.285 163.429 919.088 163.505 918.847 163.505ZM913.642 150.121C913.413 150.121 913.228 150.051 913.089 149.911C912.949 149.758 912.879 149.58 912.879 149.377C912.879 149.148 912.949 148.964 913.089 148.824C913.228 148.684 913.413 148.614 913.642 148.614H924.071C924.3 148.614 924.484 148.684 924.624 148.824C924.764 148.964 924.834 149.148 924.834 149.377C924.834 149.58 924.764 149.758 924.624 149.911C924.484 150.051 924.3 150.121 924.071 150.121H913.642Z" fill="#231337"/>
<path d="M900.761 163.695C899.731 163.695 898.765 163.498 897.863 163.104C896.973 162.71 896.185 162.163 895.499 161.464C894.825 160.765 894.298 159.958 893.916 159.043C893.548 158.115 893.363 157.117 893.363 156.049C893.363 154.994 893.548 154.009 893.916 153.094C894.298 152.166 894.825 151.359 895.499 150.673C896.172 149.974 896.954 149.427 897.844 149.033C898.746 148.626 899.719 148.423 900.761 148.423C901.689 148.423 902.522 148.556 903.259 148.823C903.996 149.077 904.714 149.497 905.413 150.082C905.528 150.171 905.598 150.272 905.623 150.387C905.661 150.488 905.661 150.59 905.623 150.692C905.598 150.793 905.553 150.882 905.49 150.959C905.464 151.099 905.388 151.213 905.261 151.302C905.146 151.378 905.007 151.416 904.841 151.416C904.676 151.416 904.511 151.353 904.346 151.226C903.863 150.793 903.341 150.476 902.782 150.272C902.223 150.056 901.549 149.948 900.761 149.948C899.96 149.948 899.204 150.113 898.492 150.444C897.793 150.762 897.177 151.2 896.643 151.759C896.109 152.319 895.689 152.967 895.384 153.704C895.092 154.442 894.946 155.223 894.946 156.049C894.946 156.901 895.092 157.696 895.384 158.433C895.689 159.17 896.109 159.818 896.643 160.378C897.177 160.937 897.793 161.375 898.492 161.693C899.204 162.011 899.96 162.17 900.761 162.17C901.435 162.17 902.077 162.055 902.687 161.827C903.297 161.598 903.882 161.274 904.441 160.854C904.619 160.714 904.797 160.657 904.975 160.683C905.165 160.708 905.324 160.791 905.451 160.93C905.591 161.058 905.661 161.236 905.661 161.464C905.661 161.579 905.642 161.68 905.604 161.769C905.566 161.858 905.509 161.954 905.432 162.055C904.771 162.627 904.041 163.047 903.24 163.314C902.452 163.568 901.625 163.695 900.761 163.695Z" fill="#231337"/>
<path d="M872.878 163.505C872.649 163.505 872.452 163.429 872.287 163.276C872.122 163.124 872.039 162.927 872.039 162.685V149.434C872.039 149.193 872.122 148.996 872.287 148.843C872.452 148.691 872.649 148.614 872.878 148.614C873.119 148.614 873.31 148.691 873.45 148.843C873.603 148.996 873.679 149.193 873.679 149.434V160.874L883.079 148.919C883.244 148.716 883.454 148.614 883.708 148.614C883.949 148.614 884.146 148.691 884.299 148.843C884.451 148.996 884.528 149.193 884.528 149.434V162.685C884.528 162.927 884.451 163.124 884.299 163.276C884.146 163.429 883.949 163.505 883.708 163.505C883.479 163.505 883.282 163.429 883.117 163.276C882.964 163.124 882.888 162.927 882.888 162.685V151.264L873.507 163.219C873.431 163.308 873.336 163.378 873.221 163.429C873.107 163.48 872.992 163.505 872.878 163.505Z" fill="#231337"/>
<path d="M858.304 163.695C857.274 163.695 856.308 163.498 855.406 163.104C854.516 162.71 853.728 162.163 853.042 161.464C852.368 160.765 851.84 159.958 851.459 159.043C851.091 158.115 850.906 157.117 850.906 156.049C850.906 154.994 851.091 154.009 851.459 153.094C851.84 152.166 852.368 151.359 853.042 150.673C853.715 149.974 854.497 149.427 855.387 149.033C856.289 148.626 857.262 148.423 858.304 148.423C859.232 148.423 860.065 148.556 860.802 148.823C861.539 149.077 862.257 149.497 862.956 150.082C863.071 150.171 863.141 150.272 863.166 150.387C863.204 150.488 863.204 150.59 863.166 150.692C863.141 150.793 863.096 150.882 863.033 150.959C863.007 151.099 862.931 151.213 862.804 151.302C862.689 151.378 862.55 151.416 862.384 151.416C862.219 151.416 862.054 151.353 861.889 151.226C861.406 150.793 860.884 150.476 860.325 150.272C859.766 150.056 859.092 149.948 858.304 149.948C857.503 149.948 856.747 150.113 856.035 150.444C855.336 150.762 854.72 151.2 854.186 151.759C853.652 152.319 853.232 152.967 852.927 153.704C852.635 154.442 852.489 155.223 852.489 156.049C852.489 156.901 852.635 157.696 852.927 158.433C853.232 159.17 853.652 159.818 854.186 160.378C854.72 160.937 855.336 161.375 856.035 161.693C856.747 162.011 857.503 162.17 858.304 162.17C858.978 162.17 859.62 162.055 860.23 161.827C860.84 161.598 861.425 161.274 861.984 160.854C862.162 160.714 862.34 160.657 862.518 160.683C862.708 160.708 862.867 160.791 862.994 160.93C863.134 161.058 863.204 161.236 863.204 161.464C863.204 161.579 863.185 161.68 863.147 161.769C863.109 161.858 863.052 161.954 862.975 162.055C862.314 162.627 861.583 163.047 860.783 163.314C859.995 163.568 859.168 163.695 858.304 163.695Z" fill="#231337"/>
<path d="M837.87 163.695C836.841 163.695 835.875 163.498 834.972 163.104C834.083 162.71 833.294 162.163 832.608 161.464C831.934 160.765 831.407 159.958 831.026 159.043C830.657 158.115 830.473 157.117 830.473 156.049C830.473 154.994 830.657 154.009 831.026 153.094C831.407 152.166 831.934 151.359 832.608 150.673C833.282 149.974 834.063 149.427 834.953 149.033C835.856 148.626 836.828 148.423 837.87 148.423C838.798 148.423 839.631 148.556 840.368 148.823C841.105 149.077 841.824 149.497 842.523 150.082C842.637 150.171 842.707 150.272 842.732 150.387C842.771 150.488 842.771 150.59 842.732 150.692C842.707 150.793 842.662 150.882 842.599 150.959C842.573 151.099 842.497 151.213 842.37 151.302C842.256 151.378 842.116 151.416 841.951 151.416C841.785 151.416 841.62 151.353 841.455 151.226C840.972 150.793 840.451 150.476 839.891 150.272C839.332 150.056 838.658 149.948 837.87 149.948C837.07 149.948 836.313 150.113 835.602 150.444C834.902 150.762 834.286 151.2 833.752 151.759C833.218 152.319 832.799 152.967 832.494 153.704C832.201 154.442 832.055 155.223 832.055 156.049C832.055 156.901 832.201 157.696 832.494 158.433C832.799 159.17 833.218 159.818 833.752 160.378C834.286 160.937 834.902 161.375 835.602 161.693C836.313 162.011 837.07 162.17 837.87 162.17C838.544 162.17 839.186 162.055 839.796 161.827C840.406 161.598 840.991 161.274 841.55 160.854C841.728 160.714 841.906 160.657 842.084 160.683C842.275 160.708 842.434 160.791 842.561 160.93C842.701 161.058 842.771 161.236 842.771 161.464C842.771 161.579 842.751 161.68 842.713 161.769C842.675 161.858 842.618 161.954 842.542 162.055C841.881 162.627 841.15 163.047 840.349 163.314C839.561 163.568 838.735 163.695 837.87 163.695Z" fill="#231337"/>
<path d="M811.684 163.505C811.366 163.505 811.131 163.378 810.979 163.124C810.839 162.857 810.826 162.59 810.941 162.323L816.47 149.167C816.635 148.799 816.902 148.614 817.271 148.614C817.639 148.614 817.893 148.799 818.033 149.167L823.582 162.342C823.709 162.622 823.69 162.889 823.524 163.143C823.372 163.384 823.149 163.505 822.857 163.505C822.692 163.505 822.539 163.461 822.399 163.372C822.26 163.283 822.152 163.162 822.075 163.009L817.004 150.578H817.576L812.428 163.009C812.364 163.175 812.262 163.302 812.123 163.391C811.983 163.467 811.837 163.505 811.684 163.505ZM812.866 160.035L813.495 158.643H821.141L821.789 160.035H812.866Z" fill="#231337"/>
<path d="M779.929 163.505C779.7 163.505 779.503 163.429 779.338 163.276C779.172 163.124 779.09 162.927 779.09 162.685V149.434C779.09 149.192 779.172 148.995 779.338 148.843C779.503 148.69 779.7 148.614 779.929 148.614C780.17 148.614 780.361 148.69 780.501 148.843C780.653 148.995 780.73 149.192 780.73 149.434V160.874L790.129 148.919C790.295 148.716 790.504 148.614 790.759 148.614C791 148.614 791.197 148.69 791.35 148.843C791.502 148.995 791.578 149.192 791.578 149.434V162.685C791.578 162.927 791.502 163.124 791.35 163.276C791.197 163.429 791 163.505 790.759 163.505C790.53 163.505 790.333 163.429 790.167 163.276C790.015 163.124 789.939 162.927 789.939 162.685V151.264L780.558 163.219C780.482 163.308 780.386 163.378 780.272 163.429C780.158 163.48 780.043 163.505 779.929 163.505ZM785.363 147.26C784.727 147.26 784.155 147.152 783.647 146.936C783.151 146.72 782.757 146.428 782.465 146.059C782.172 145.678 782.026 145.258 782.026 144.801C782.026 144.572 782.096 144.381 782.236 144.229C782.388 144.076 782.566 144 782.77 144C782.986 144 783.164 144.076 783.304 144.229C783.443 144.381 783.513 144.585 783.513 144.839C783.513 145.182 783.691 145.462 784.047 145.678C784.403 145.894 784.842 146.002 785.363 146.002C785.897 146.002 786.335 145.894 786.678 145.678C787.034 145.462 787.212 145.182 787.212 144.839C787.212 144.585 787.282 144.381 787.422 144.229C787.574 144.076 787.752 144 787.956 144C788.172 144 788.35 144.076 788.49 144.229C788.629 144.381 788.699 144.572 788.699 144.801C788.699 145.258 788.553 145.678 788.261 146.059C787.968 146.428 787.568 146.72 787.06 146.936C786.564 147.152 785.998 147.26 785.363 147.26Z" fill="#231337"/>
<path d="M756.541 163.505C756.287 163.505 756.077 163.429 755.912 163.276C755.747 163.124 755.664 162.927 755.664 162.685V149.358C755.664 149.142 755.74 148.964 755.893 148.824C756.045 148.684 756.242 148.614 756.484 148.614C756.725 148.614 756.922 148.684 757.075 148.824C757.228 148.964 757.304 149.142 757.304 149.358V154.506H760.831C761.746 154.506 762.553 154.696 763.253 155.078C763.964 155.459 764.517 155.987 764.911 156.66C765.305 157.321 765.502 158.078 765.502 158.929C765.502 159.832 765.305 160.626 764.911 161.313C764.517 161.999 763.964 162.539 763.253 162.933C762.553 163.315 761.746 163.505 760.831 163.505H756.541ZM757.304 161.961H760.831C761.441 161.961 761.975 161.84 762.433 161.599C762.89 161.344 763.253 160.988 763.519 160.531C763.786 160.073 763.92 159.527 763.92 158.891C763.92 158.268 763.786 157.741 763.519 157.309C763.253 156.864 762.89 156.527 762.433 156.298C761.975 156.057 761.441 155.936 760.831 155.936H757.304V161.961ZM768.763 163.505C768.521 163.505 768.324 163.429 768.172 163.276C768.019 163.124 767.943 162.927 767.943 162.685V149.434C767.943 149.193 768.019 148.996 768.172 148.843C768.324 148.691 768.521 148.614 768.763 148.614C768.979 148.614 769.163 148.691 769.316 148.843C769.481 148.996 769.564 149.193 769.564 149.434V162.685C769.564 162.927 769.481 163.124 769.316 163.276C769.163 163.429 768.979 163.505 768.763 163.505Z" fill="#231337"/>
<path d="M734.527 163.505C734.285 163.505 734.088 163.429 733.936 163.276C733.783 163.124 733.707 162.927 733.707 162.685V149.434C733.707 149.193 733.783 148.996 733.936 148.843C734.088 148.691 734.285 148.614 734.527 148.614C734.768 148.614 734.965 148.691 735.118 148.843C735.27 148.996 735.347 149.193 735.347 149.434V155.23H744.518V149.434C744.518 149.193 744.594 148.996 744.747 148.843C744.899 148.691 745.096 148.614 745.338 148.614C745.566 148.614 745.757 148.691 745.91 148.843C746.062 148.996 746.138 149.193 746.138 149.434V162.685C746.138 162.927 746.062 163.124 745.91 163.276C745.757 163.429 745.566 163.505 745.338 163.505C745.096 163.505 744.899 163.429 744.747 163.276C744.594 163.124 744.518 162.927 744.518 162.685V156.698H735.347V162.685C735.347 162.927 735.27 163.124 735.118 163.276C734.965 163.429 734.768 163.505 734.527 163.505Z" fill="#231337"/>
<path d="M712.574 163.505C712.332 163.505 712.135 163.429 711.983 163.276C711.83 163.124 711.754 162.927 711.754 162.685V149.434C711.754 149.193 711.83 148.996 711.983 148.843C712.135 148.691 712.332 148.614 712.574 148.614C712.815 148.614 713.012 148.691 713.165 148.843C713.317 148.996 713.394 149.193 713.394 149.434V155.23H722.565V149.434C722.565 149.193 722.641 148.996 722.793 148.843C722.946 148.691 723.143 148.614 723.384 148.614C723.613 148.614 723.804 148.691 723.956 148.843C724.109 148.996 724.185 149.193 724.185 149.434V162.685C724.185 162.927 724.109 163.124 723.956 163.276C723.804 163.429 723.613 163.505 723.384 163.505C723.143 163.505 722.946 163.429 722.793 163.276C722.641 163.124 722.565 162.927 722.565 162.685V156.698H713.394V162.685C713.394 162.927 713.317 163.124 713.165 163.276C713.012 163.429 712.815 163.505 712.574 163.505Z" fill="#231337"/>
<path d="M695.354 163.695C694.248 163.695 693.231 163.504 692.303 163.123C691.376 162.742 690.568 162.214 689.882 161.541C689.208 160.854 688.687 160.047 688.319 159.119C687.95 158.179 687.766 157.155 687.766 156.049C687.766 154.944 687.95 153.927 688.319 152.999C688.687 152.071 689.208 151.27 689.882 150.596C690.568 149.91 691.376 149.376 692.303 148.995C693.231 148.614 694.248 148.423 695.354 148.423C696.46 148.423 697.47 148.614 698.386 148.995C699.314 149.376 700.121 149.91 700.807 150.596C701.493 151.27 702.021 152.071 702.39 152.999C702.758 153.927 702.943 154.944 702.943 156.049C702.943 157.155 702.758 158.179 702.39 159.119C702.021 160.047 701.493 160.854 700.807 161.541C700.121 162.214 699.314 162.742 698.386 163.123C697.47 163.504 696.46 163.695 695.354 163.695ZM695.354 162.17C696.218 162.17 697.013 162.017 697.737 161.712C698.475 161.394 699.11 160.962 699.644 160.416C700.191 159.856 700.61 159.208 700.902 158.471C701.195 157.721 701.341 156.914 701.341 156.049C701.341 155.185 701.195 154.384 700.902 153.647C700.61 152.897 700.191 152.249 699.644 151.702C699.11 151.143 698.475 150.711 697.737 150.406C697.013 150.101 696.218 149.948 695.354 149.948C694.49 149.948 693.689 150.101 692.952 150.406C692.214 150.711 691.579 151.143 691.045 151.702C690.511 152.249 690.092 152.897 689.787 153.647C689.494 154.384 689.348 155.185 689.348 156.049C689.348 156.914 689.494 157.721 689.787 158.471C690.092 159.208 690.511 159.856 691.045 160.416C691.579 160.962 692.214 161.394 692.952 161.712C693.689 162.017 694.49 162.17 695.354 162.17Z" fill="#231337"/>
<path d="M667.28 163.505C667.052 163.505 666.855 163.429 666.689 163.276C666.524 163.124 666.441 162.927 666.441 162.685V149.434C666.441 149.193 666.524 148.996 666.689 148.843C666.855 148.691 667.052 148.614 667.28 148.614C667.522 148.614 667.713 148.691 667.852 148.843C668.005 148.996 668.081 149.193 668.081 149.434V160.874L677.481 148.919C677.646 148.716 677.856 148.614 678.11 148.614C678.352 148.614 678.549 148.691 678.701 148.843C678.854 148.996 678.93 149.193 678.93 149.434V162.685C678.93 162.927 678.854 163.124 678.701 163.276C678.549 163.429 678.352 163.505 678.11 163.505C677.881 163.505 677.684 163.429 677.519 163.276C677.366 163.124 677.29 162.927 677.29 162.685V151.264L667.91 163.219C667.833 163.308 667.738 163.378 667.624 163.429C667.509 163.48 667.395 163.505 667.28 163.505Z" fill="#231337"/>
<path d="M657.322 166.804C657.067 166.804 656.864 166.727 656.711 166.575C656.572 166.422 656.502 166.225 656.502 165.984V163.505H645.214C644.973 163.505 644.776 163.429 644.623 163.276C644.471 163.124 644.395 162.927 644.395 162.685V149.434C644.395 149.193 644.471 148.996 644.623 148.843C644.776 148.691 644.973 148.614 645.214 148.614C645.456 148.614 645.653 148.691 645.805 148.843C645.958 148.996 646.034 149.193 646.034 149.434V161.999H654.538V149.434C654.538 149.193 654.614 148.996 654.767 148.843C654.919 148.691 655.116 148.614 655.358 148.614C655.599 148.614 655.796 148.691 655.949 148.843C656.101 148.996 656.178 149.193 656.178 149.434V161.999H657.322C657.563 161.999 657.76 162.075 657.913 162.228C658.065 162.38 658.141 162.577 658.141 162.819V165.984C658.141 166.225 658.065 166.422 657.913 166.575C657.76 166.727 657.563 166.804 657.322 166.804Z" fill="#231337"/>
<path d="M624.524 163.505C624.206 163.505 623.971 163.378 623.818 163.124C623.679 162.857 623.666 162.59 623.78 162.323L629.31 149.167C629.475 148.799 629.742 148.614 630.11 148.614C630.479 148.614 630.733 148.799 630.873 149.167L636.421 162.342C636.549 162.622 636.529 162.889 636.364 163.143C636.212 163.384 635.989 163.505 635.697 163.505C635.532 163.505 635.379 163.461 635.239 163.372C635.099 163.283 634.991 163.162 634.915 163.009L629.843 150.578H630.415L625.268 163.009C625.204 163.175 625.102 163.302 624.962 163.391C624.823 163.467 624.676 163.505 624.524 163.505ZM625.706 160.035L626.335 158.643H633.981L634.629 160.035H625.706Z" fill="#231337"/>
<path d="M612.89 163.505C612.661 163.505 612.464 163.429 612.299 163.276C612.146 163.111 612.07 162.914 612.07 162.685V148.614H613.71V162.685C613.71 162.914 613.633 163.111 613.481 163.276C613.328 163.429 613.131 163.505 612.89 163.505ZM607.685 150.121C607.456 150.121 607.271 150.051 607.132 149.911C606.992 149.758 606.922 149.58 606.922 149.377C606.922 149.148 606.992 148.964 607.132 148.824C607.271 148.684 607.456 148.614 607.685 148.614H618.114C618.343 148.614 618.527 148.684 618.667 148.824C618.807 148.964 618.877 149.148 618.877 149.377C618.877 149.58 618.807 149.758 618.667 149.911C618.527 150.051 618.343 150.121 618.114 150.121H607.685Z" fill="#231337"/>
<path d="M587.406 163.505C587.164 163.505 586.967 163.429 586.815 163.276C586.662 163.124 586.586 162.927 586.586 162.685V149.434C586.586 149.193 586.662 148.996 586.815 148.843C586.967 148.691 587.164 148.614 587.406 148.614C587.647 148.614 587.844 148.691 587.997 148.843C588.149 148.996 588.226 149.193 588.226 149.434V155.23H597.397V149.434C597.397 149.193 597.473 148.996 597.625 148.843C597.778 148.691 597.975 148.614 598.217 148.614C598.445 148.614 598.636 148.691 598.788 148.843C598.941 148.996 599.017 149.193 599.017 149.434V162.685C599.017 162.927 598.941 163.124 598.788 163.276C598.636 163.429 598.445 163.505 598.217 163.505C597.975 163.505 597.778 163.429 597.625 163.276C597.473 163.124 597.397 162.927 597.397 162.685V156.698H588.226V162.685C588.226 162.927 588.149 163.124 587.997 163.276C587.844 163.429 587.647 163.505 587.406 163.505Z" fill="#231337"/>
<path d="M568.449 163.505C568.207 163.505 568.01 163.429 567.858 163.276C567.705 163.124 567.629 162.927 567.629 162.685V149.434C567.629 149.193 567.705 148.996 567.858 148.843C568.01 148.691 568.207 148.614 568.449 148.614H577.296C577.524 148.614 577.715 148.691 577.868 148.843C578.02 148.983 578.096 149.167 578.096 149.396C578.096 149.612 578.02 149.796 577.868 149.949C577.715 150.089 577.524 150.159 577.296 150.159H569.269V155.23H575.084C575.325 155.23 575.522 155.307 575.675 155.459C575.828 155.612 575.904 155.796 575.904 156.012C575.904 156.241 575.828 156.432 575.675 156.584C575.522 156.724 575.325 156.794 575.084 156.794H569.269V161.961H577.296C577.524 161.961 577.715 162.037 577.868 162.19C578.02 162.329 578.096 162.507 578.096 162.723C578.096 162.952 578.02 163.143 577.868 163.295C577.715 163.435 577.524 163.505 577.296 163.505H568.449Z" fill="#231337"/>
<path d="M546.437 163.505C546.208 163.505 546.011 163.429 545.846 163.276C545.68 163.124 545.598 162.927 545.598 162.685V149.434C545.598 149.193 545.68 148.996 545.846 148.843C546.011 148.691 546.208 148.614 546.437 148.614C546.678 148.614 546.869 148.691 547.009 148.843C547.161 148.996 547.237 149.193 547.237 149.434V160.874L556.637 148.919C556.802 148.716 557.012 148.614 557.266 148.614C557.508 148.614 557.705 148.691 557.857 148.843C558.01 148.996 558.086 149.193 558.086 149.434V162.685C558.086 162.927 558.01 163.124 557.857 163.276C557.705 163.429 557.508 163.505 557.266 163.505C557.038 163.505 556.841 163.429 556.675 163.276C556.523 163.124 556.446 162.927 556.446 162.685V151.264L547.066 163.219C546.99 163.308 546.894 163.378 546.78 163.429C546.665 163.48 546.551 163.505 546.437 163.505Z" fill="#231337"/>
<path d="M528.968 163.505C528.727 163.505 528.53 163.429 528.377 163.276C528.225 163.124 528.148 162.927 528.148 162.685V149.434C528.148 149.193 528.225 148.996 528.377 148.843C528.53 148.691 528.727 148.614 528.968 148.614H532.782C533.722 148.614 534.555 148.824 535.279 149.243C536.017 149.65 536.589 150.222 536.995 150.959C537.402 151.684 537.605 152.529 537.605 153.495C537.605 154.423 537.402 155.249 536.995 155.974C536.589 156.686 536.017 157.251 535.279 157.671C534.555 158.078 533.722 158.281 532.782 158.281H529.788V162.685C529.788 162.927 529.712 163.124 529.559 163.276C529.407 163.429 529.21 163.505 528.968 163.505ZM529.788 156.718H532.782C533.404 156.718 533.957 156.584 534.44 156.317C534.936 156.037 535.324 155.656 535.603 155.173C535.883 154.677 536.023 154.118 536.023 153.495C536.023 152.834 535.883 152.256 535.603 151.76C535.337 151.264 534.955 150.877 534.459 150.597C533.964 150.305 533.404 150.159 532.782 150.159H529.788V156.718Z" fill="#231337"/>
<path d="M511.753 163.695C510.647 163.695 509.63 163.504 508.702 163.123C507.774 162.742 506.967 162.214 506.28 161.541C505.607 160.854 505.086 160.047 504.717 159.119C504.348 158.179 504.164 157.155 504.164 156.049C504.164 154.944 504.348 153.927 504.717 152.999C505.086 152.071 505.607 151.27 506.28 150.596C506.967 149.91 507.774 149.376 508.702 148.995C509.63 148.614 510.647 148.423 511.753 148.423C512.858 148.423 513.869 148.614 514.784 148.995C515.712 149.376 516.519 149.91 517.206 150.596C517.892 151.27 518.419 152.071 518.788 152.999C519.157 153.927 519.341 154.944 519.341 156.049C519.341 157.155 519.157 158.179 518.788 159.119C518.419 160.047 517.892 160.854 517.206 161.541C516.519 162.214 515.712 162.742 514.784 163.123C513.869 163.504 512.858 163.695 511.753 163.695ZM511.753 162.17C512.617 162.17 513.411 162.017 514.136 161.712C514.873 161.394 515.509 160.962 516.042 160.416C516.589 159.856 517.009 159.208 517.301 158.471C517.593 157.721 517.739 156.914 517.739 156.049C517.739 155.185 517.593 154.384 517.301 153.647C517.009 152.897 516.589 152.249 516.042 151.702C515.509 151.143 514.873 150.711 514.136 150.406C513.411 150.101 512.617 149.948 511.753 149.948C510.888 149.948 510.087 150.101 509.35 150.406C508.613 150.711 507.977 151.143 507.444 151.702C506.91 152.249 506.49 152.897 506.185 153.647C505.893 154.384 505.747 155.185 505.747 156.049C505.747 156.914 505.893 157.721 506.185 158.471C506.49 159.208 506.91 159.856 507.444 160.416C507.977 160.962 508.613 161.394 509.35 161.712C510.087 162.017 510.888 162.17 511.753 162.17Z" fill="#231337"/>
<path d="M489.297 161.865C488.267 161.865 487.32 161.726 486.456 161.446C485.604 161.154 484.861 160.747 484.225 160.226C483.59 159.705 483.1 159.088 482.757 158.376C482.414 157.664 482.242 156.889 482.242 156.05C482.242 155.211 482.414 154.442 482.757 153.743C483.1 153.031 483.59 152.415 484.225 151.894C484.861 151.373 485.604 150.972 486.456 150.693C487.32 150.4 488.267 150.254 489.297 150.254C490.326 150.254 491.273 150.4 492.138 150.693C493.015 150.972 493.771 151.373 494.407 151.894C495.055 152.415 495.551 153.031 495.894 153.743C496.25 154.442 496.428 155.211 496.428 156.05C496.428 156.889 496.25 157.664 495.894 158.376C495.551 159.088 495.055 159.705 494.407 160.226C493.771 160.747 493.015 161.154 492.138 161.446C491.273 161.726 490.326 161.865 489.297 161.865ZM489.297 160.455C490.352 160.455 491.299 160.27 492.138 159.902C492.977 159.52 493.638 158.999 494.121 158.338C494.604 157.677 494.845 156.915 494.845 156.05C494.845 155.186 494.604 154.43 494.121 153.781C493.638 153.12 492.977 152.606 492.138 152.237C491.299 151.856 490.352 151.665 489.297 151.665C488.242 151.665 487.301 151.856 486.475 152.237C485.649 152.606 485 153.12 484.53 153.781C484.06 154.43 483.825 155.186 483.825 156.05C483.825 156.915 484.06 157.677 484.53 158.338C485 158.999 485.649 159.52 486.475 159.902C487.301 160.27 488.242 160.455 489.297 160.455ZM489.278 163.505C489.036 163.505 488.839 163.429 488.687 163.276C488.534 163.124 488.458 162.927 488.458 162.685V161.446L488.534 160.779V151.284L488.458 150.75V149.434C488.458 149.193 488.534 148.996 488.687 148.843C488.839 148.691 489.036 148.614 489.278 148.614C489.519 148.614 489.716 148.691 489.869 148.843C490.021 148.996 490.098 149.193 490.098 149.434V150.75L490.021 151.264V160.817L490.098 161.37V162.685C490.098 162.927 490.021 163.124 489.869 163.276C489.716 163.429 489.519 163.505 489.278 163.505Z" fill="#231337"/>
<path d="M466.928 163.695C465.822 163.695 464.806 163.504 463.878 163.123C462.95 162.742 462.143 162.214 461.456 161.541C460.783 160.854 460.261 160.047 459.893 159.119C459.524 158.179 459.34 157.155 459.34 156.049C459.34 154.944 459.524 153.927 459.893 152.999C460.261 152.071 460.783 151.27 461.456 150.596C462.143 149.91 462.95 149.376 463.878 148.995C464.806 148.614 465.822 148.423 466.928 148.423C468.034 148.423 469.045 148.614 469.96 148.995C470.888 149.376 471.695 149.91 472.381 150.596C473.068 151.27 473.595 152.071 473.964 152.999C474.332 153.927 474.517 154.944 474.517 156.049C474.517 157.155 474.332 158.179 473.964 159.119C473.595 160.047 473.068 160.854 472.381 161.541C471.695 162.214 470.888 162.742 469.96 163.123C469.045 163.504 468.034 163.695 466.928 163.695ZM466.928 162.17C467.793 162.17 468.587 162.017 469.312 161.712C470.049 161.394 470.684 160.962 471.218 160.416C471.765 159.856 472.184 159.208 472.477 158.471C472.769 157.721 472.915 156.914 472.915 156.049C472.915 155.185 472.769 154.384 472.477 153.647C472.184 152.897 471.765 152.249 471.218 151.702C470.684 151.143 470.049 150.711 469.312 150.406C468.587 150.101 467.793 149.948 466.928 149.948C466.064 149.948 465.263 150.101 464.526 150.406C463.789 150.711 463.153 151.143 462.619 151.702C462.085 152.249 461.666 152.897 461.361 153.647C461.069 154.384 460.922 155.185 460.922 156.049C460.922 156.914 461.069 157.721 461.361 158.471C461.666 159.208 462.085 159.856 462.619 160.416C463.153 160.962 463.789 161.394 464.526 161.712C465.263 162.017 466.064 162.17 466.928 162.17Z" fill="#231337"/>
<path d="M443.414 163.505C443.172 163.505 442.975 163.429 442.823 163.276C442.67 163.124 442.594 162.927 442.594 162.685V149.434C442.594 149.193 442.67 148.996 442.823 148.843C442.975 148.691 443.172 148.614 443.414 148.614H447.227C448.168 148.614 449 148.824 449.725 149.243C450.462 149.65 451.034 150.222 451.441 150.959C451.847 151.684 452.051 152.529 452.051 153.495C452.051 154.423 451.847 155.249 451.441 155.974C451.034 156.686 450.462 157.251 449.725 157.671C449 158.078 448.168 158.281 447.227 158.281H444.233V162.685C444.233 162.927 444.157 163.124 444.005 163.276C443.852 163.429 443.655 163.505 443.414 163.505ZM444.233 156.718H447.227C447.85 156.718 448.403 156.584 448.886 156.317C449.381 156.037 449.769 155.656 450.049 155.173C450.328 154.677 450.468 154.118 450.468 153.495C450.468 152.834 450.328 152.256 450.049 151.76C449.782 151.264 449.4 150.877 448.905 150.597C448.409 150.305 447.85 150.159 447.227 150.159H444.233V156.718Z" fill="#231337"/>
<path d="M422.089 163.505C421.848 163.505 421.651 163.429 421.498 163.276C421.346 163.124 421.27 162.927 421.27 162.685V149.434C421.27 149.193 421.346 148.996 421.498 148.843C421.651 148.691 421.848 148.614 422.089 148.614H432.233C432.474 148.614 432.671 148.691 432.824 148.843C432.976 148.996 433.053 149.193 433.053 149.434V162.685C433.053 162.927 432.976 163.124 432.824 163.276C432.671 163.429 432.474 163.505 432.233 163.505C431.991 163.505 431.794 163.429 431.642 163.276C431.489 163.124 431.413 162.927 431.413 162.685V150.121H422.909V162.685C422.909 162.927 422.833 163.124 422.68 163.276C422.528 163.429 422.331 163.505 422.089 163.505Z" fill="#231337"/>
<path d="M388.773 163.505C388.544 163.505 388.347 163.429 388.181 163.276C388.016 163.124 387.934 162.927 387.934 162.685V149.434C387.934 149.192 388.016 148.995 388.181 148.843C388.347 148.69 388.544 148.614 388.773 148.614C389.014 148.614 389.205 148.69 389.345 148.843C389.497 148.995 389.573 149.192 389.573 149.434V160.874L398.973 148.919C399.138 148.716 399.348 148.614 399.602 148.614C399.844 148.614 400.041 148.69 400.193 148.843C400.346 148.995 400.422 149.192 400.422 149.434V162.685C400.422 162.927 400.346 163.124 400.193 163.276C400.041 163.429 399.844 163.505 399.602 163.505C399.373 163.505 399.176 163.429 399.011 163.276C398.859 163.124 398.782 162.927 398.782 162.685V151.264L389.402 163.219C389.325 163.308 389.23 163.378 389.116 163.429C389.001 163.48 388.887 163.505 388.773 163.505ZM394.206 147.26C393.571 147.26 392.999 147.152 392.49 146.936C391.995 146.72 391.601 146.428 391.308 146.059C391.016 145.678 390.87 145.258 390.87 144.801C390.87 144.572 390.94 144.381 391.08 144.229C391.232 144.076 391.41 144 391.613 144C391.83 144 392.007 144.076 392.147 144.229C392.287 144.381 392.357 144.585 392.357 144.839C392.357 145.182 392.535 145.462 392.891 145.678C393.247 145.894 393.685 146.002 394.206 146.002C394.74 146.002 395.179 145.894 395.522 145.678C395.878 145.462 396.056 145.182 396.056 144.839C396.056 144.585 396.126 144.381 396.266 144.229C396.418 144.076 396.596 144 396.8 144C397.016 144 397.194 144.076 397.333 144.229C397.473 144.381 397.543 144.572 397.543 144.801C397.543 145.258 397.397 145.678 397.105 146.059C396.812 146.428 396.412 146.72 395.903 146.936C395.408 147.152 394.842 147.26 394.206 147.26Z" fill="#231337"/>
<path d="M365.385 163.505C365.131 163.505 364.921 163.429 364.756 163.276C364.59 163.124 364.508 162.927 364.508 162.685V149.358C364.508 149.142 364.584 148.964 364.737 148.824C364.889 148.684 365.086 148.614 365.328 148.614C365.569 148.614 365.766 148.684 365.919 148.824C366.071 148.964 366.148 149.142 366.148 149.358V154.506H369.675C370.59 154.506 371.397 154.696 372.096 155.078C372.808 155.459 373.361 155.987 373.755 156.66C374.149 157.321 374.346 158.078 374.346 158.929C374.346 159.832 374.149 160.626 373.755 161.313C373.361 161.999 372.808 162.539 372.096 162.933C371.397 163.315 370.59 163.505 369.675 163.505H365.385ZM366.148 161.961H369.675C370.285 161.961 370.819 161.84 371.276 161.599C371.734 161.344 372.096 160.988 372.363 160.531C372.63 160.073 372.764 159.527 372.764 158.891C372.764 158.268 372.63 157.741 372.363 157.309C372.096 156.864 371.734 156.527 371.276 156.298C370.819 156.057 370.285 155.936 369.675 155.936H366.148V161.961ZM377.606 163.505C377.365 163.505 377.168 163.429 377.015 163.276C376.863 163.124 376.787 162.927 376.787 162.685V149.434C376.787 149.193 376.863 148.996 377.015 148.843C377.168 148.691 377.365 148.614 377.606 148.614C377.823 148.614 378.007 148.691 378.159 148.843C378.325 148.996 378.407 149.193 378.407 149.434V162.685C378.407 162.927 378.325 163.124 378.159 163.276C378.007 163.429 377.823 163.505 377.606 163.505Z" fill="#231337"/>
<path d="M343.371 163.505C343.129 163.505 342.932 163.429 342.78 163.276C342.627 163.124 342.551 162.927 342.551 162.685V149.434C342.551 149.193 342.627 148.996 342.78 148.843C342.932 148.691 343.129 148.614 343.371 148.614C343.612 148.614 343.809 148.691 343.962 148.843C344.114 148.996 344.19 149.193 344.19 149.434V155.23H353.361V149.434C353.361 149.193 353.438 148.996 353.59 148.843C353.743 148.691 353.94 148.614 354.181 148.614C354.41 148.614 354.601 148.691 354.753 148.843C354.906 148.996 354.982 149.193 354.982 149.434V162.685C354.982 162.927 354.906 163.124 354.753 163.276C354.601 163.429 354.41 163.505 354.181 163.505C353.94 163.505 353.743 163.429 353.59 163.276C353.438 163.124 353.361 162.927 353.361 162.685V156.698H344.19V162.685C344.19 162.927 344.114 163.124 343.962 163.276C343.809 163.429 343.612 163.505 343.371 163.505Z" fill="#231337"/>
<path d="M327.248 158.51C326.092 158.51 325.1 158.262 324.274 157.766C323.448 157.27 322.819 156.559 322.387 155.631C321.954 154.703 321.738 153.597 321.738 152.313V149.415C321.738 149.174 321.815 148.983 321.967 148.843C322.132 148.691 322.329 148.614 322.558 148.614C322.8 148.614 322.997 148.691 323.149 148.843C323.302 148.983 323.378 149.174 323.378 149.415V152.313C323.378 153.292 323.511 154.137 323.778 154.849C324.058 155.548 324.49 156.088 325.075 156.47C325.66 156.851 326.41 157.042 327.325 157.042C328.1 157.042 328.793 156.946 329.403 156.756C330.026 156.565 330.509 156.311 330.852 155.993C331.208 155.663 331.386 155.288 331.386 154.868H332.244C332.218 155.58 331.983 156.209 331.538 156.756C331.094 157.302 330.503 157.734 329.765 158.052C329.028 158.357 328.189 158.51 327.248 158.51ZM332.206 163.505C331.977 163.505 331.78 163.429 331.615 163.276C331.462 163.124 331.386 162.927 331.386 162.685V149.434C331.386 149.193 331.462 148.996 331.615 148.843C331.78 148.691 331.977 148.614 332.206 148.614C332.447 148.614 332.644 148.691 332.797 148.843C332.949 148.996 333.026 149.193 333.026 149.434V162.685C333.026 162.927 332.949 163.124 332.797 163.276C332.644 163.429 332.447 163.505 332.206 163.505Z" fill="#231337"/>
<path d="M301.062 163.505C300.833 163.505 300.636 163.429 300.471 163.276C300.305 163.124 300.223 162.927 300.223 162.685V149.434C300.223 149.193 300.305 148.996 300.471 148.843C300.636 148.691 300.833 148.614 301.062 148.614C301.303 148.614 301.494 148.691 301.634 148.843C301.786 148.996 301.862 149.193 301.862 149.434V160.874L311.262 148.919C311.427 148.716 311.637 148.614 311.891 148.614C312.133 148.614 312.33 148.691 312.482 148.843C312.635 148.996 312.711 149.193 312.711 149.434V162.685C312.711 162.927 312.635 163.124 312.482 163.276C312.33 163.429 312.133 163.505 311.891 163.505C311.663 163.505 311.466 163.429 311.3 163.276C311.148 163.124 311.071 162.927 311.071 162.685V151.264L301.691 163.219C301.615 163.308 301.519 163.378 301.405 163.429C301.29 163.48 301.176 163.505 301.062 163.505Z" fill="#231337"/>
<path d="M280.276 163.505C279.958 163.505 279.723 163.378 279.571 163.124C279.431 162.857 279.425 162.59 279.552 162.323L285.081 149.167C285.234 148.799 285.488 148.614 285.844 148.614C286.225 148.614 286.492 148.799 286.644 149.167L292.193 162.342C292.307 162.622 292.288 162.889 292.136 163.143C291.996 163.384 291.773 163.505 291.468 163.505C291.303 163.505 291.151 163.461 291.011 163.372C290.871 163.283 290.769 163.162 290.706 163.009L285.596 150.578H286.206L281.039 163.009C280.963 163.175 280.855 163.302 280.715 163.391C280.588 163.467 280.441 163.505 280.276 163.505Z" fill="#231337"/>
<path d="M920.703 120.464C920.703 116.435 920.703 112.529 920.703 108.745C920.703 104.961 920.703 100.721 920.703 96.0266V70.5906C920.703 65.7557 920.703 61.3937 920.703 57.5047C920.703 53.6157 920.703 49.6217 920.703 45.5225C922.98 45.5225 925.661 45.5225 928.744 45.5225C931.862 45.5225 935.19 45.5225 938.729 45.5225C942.268 45.5225 945.841 45.5225 949.45 45.5225C955.546 45.5225 960.697 46.2057 964.901 47.5721C969.14 48.9034 972.346 51.1457 974.518 54.2989C976.725 57.4522 977.829 61.7441 977.829 67.1746C977.829 71.484 976.971 75.3555 975.254 78.789C973.572 82.2225 970.857 84.9378 967.108 86.9348C963.359 88.9319 958.454 89.9304 952.393 89.9304L959.067 83.6239L969.263 98.6543C970.839 100.967 972.521 103.454 974.308 106.117C976.095 108.745 977.829 111.32 979.511 113.842C981.228 116.33 982.734 118.537 984.03 120.464H964.428C962.536 117.521 960.714 114.701 958.962 112.003C957.21 109.305 955.511 106.678 953.865 104.12L941.725 84.9903L951.973 92.8208H934.577V80.4707H947.085C949.888 80.4707 952.235 80.1379 954.127 79.4722C956.054 78.7715 957.508 77.5978 958.489 75.9511C959.47 74.3044 959.961 72.0446 959.961 69.1716C959.961 67.0345 959.645 65.3177 959.015 64.0214C958.384 62.69 957.526 61.6565 956.44 60.9207C955.389 60.185 954.197 59.6945 952.866 59.4492C951.57 59.204 950.256 59.0813 948.925 59.0813H925.38L937.678 48.2553C937.678 52.4946 937.678 56.5588 937.678 60.4477C937.678 64.3017 937.678 68.5936 937.678 73.3234V96.0266C937.678 100.721 937.678 104.961 937.678 108.745C937.678 112.529 937.678 116.435 937.678 120.464H920.703Z" fill="#231337"/>
<path d="M867.736 121.885C860.974 121.885 855.123 120.851 850.183 118.784C845.243 116.682 841.179 113.826 837.991 110.218C834.803 106.574 832.42 102.422 830.844 97.7625C829.302 93.1027 828.531 88.1977 828.531 83.0475C828.531 75.76 829.968 69.1733 832.841 63.2872C835.749 57.3662 840.058 52.6714 845.769 49.2028C851.515 45.7343 858.68 44 867.263 44C873.78 44 879.473 45.016 884.343 47.0481C889.213 49.0452 893.26 51.8305 896.483 55.4042C899.742 58.9778 902.177 63.1121 903.788 67.8069C905.4 72.5017 906.206 77.5468 906.206 82.9423C906.206 90.405 904.717 97.0618 901.739 102.913C898.796 108.764 894.469 113.388 888.758 116.787C883.047 120.185 876.04 121.885 867.736 121.885ZM867.474 107.643C870.942 107.643 873.973 106.994 876.565 105.698C879.158 104.367 881.313 102.545 883.03 100.233C884.746 97.9202 886.025 95.2925 886.866 92.3495C887.742 89.3714 888.18 86.2357 888.18 82.9423C888.18 79.4738 887.707 76.2505 886.761 73.2724C885.85 70.2594 884.501 67.6317 882.714 65.3894C880.962 63.1471 878.808 61.3953 876.25 60.134C873.692 58.8727 870.767 58.2421 867.474 58.2421C864.075 58.2421 861.062 58.8902 858.434 60.1866C855.842 61.4829 853.669 63.2872 851.918 65.5996C850.166 67.8769 848.835 70.5046 847.924 73.4827C847.013 76.4607 846.557 79.6139 846.557 82.9423C846.557 86.2708 846.995 89.424 847.871 92.402C848.747 95.345 850.043 97.9727 851.76 100.285C853.512 102.562 855.684 104.367 858.277 105.698C860.904 106.994 863.97 107.643 867.474 107.643Z" fill="#231337"/>
<path d="M779.354 121.187C779.354 117.158 779.354 113.251 779.354 109.467C779.354 105.683 779.354 101.444 779.354 96.7493V74.0461C779.354 69.2111 779.354 64.8491 779.354 60.9602C779.354 57.0712 779.354 53.0771 779.354 48.9779L785.87 61.328H775.938C771.979 61.328 768.475 61.328 765.427 61.328C762.379 61.328 759.471 61.328 756.703 61.328V46.2451H819.19V61.328C816.457 61.328 813.566 61.328 810.518 61.328C807.47 61.328 803.949 61.328 799.955 61.328H790.022L796.591 48.9779C796.591 53.0771 796.591 57.0712 796.591 60.9602C796.591 64.8491 796.591 69.2111 796.591 74.0461V96.7493C796.591 101.444 796.591 105.683 796.591 109.467C796.591 113.251 796.591 117.158 796.591 121.187H779.354Z" fill="#231337"/>
<path d="M681.273 120.464C681.273 116.435 681.273 112.529 681.273 108.745C681.273 104.961 681.273 100.721 681.273 96.0266V70.5906C681.273 65.7557 681.273 61.3937 681.273 57.5047C681.273 53.6157 681.273 49.6217 681.273 45.5225H696.356C699.86 50.6377 703.171 55.4726 706.289 60.0273C709.407 64.5469 712.525 69.0841 715.644 73.6387L727.836 91.2968H729.097V70.5906C729.097 65.7557 729.097 61.3937 729.097 57.5047C729.097 53.6157 729.097 49.6217 729.097 45.5225H745.336C745.336 49.6217 745.336 53.6157 745.336 57.5047C745.336 61.3937 745.336 65.7557 745.336 70.5906V96.0266C745.336 100.721 745.336 104.961 745.336 108.745C745.336 112.529 745.336 116.435 745.336 120.464H730.411C727.538 116.26 724.525 111.88 721.372 107.326C718.219 102.771 714.768 97.7959 711.019 92.4004L698.669 74.5321H697.46V96.0266C697.46 100.721 697.46 104.961 697.46 108.745C697.46 112.529 697.46 116.435 697.46 120.464H681.273Z" fill="#231337"/>
<path d="M615.352 120.464C615.352 116.435 615.352 112.529 615.352 108.745C615.352 104.961 615.352 100.721 615.352 96.0266V70.5906C615.352 65.7557 615.352 61.3937 615.352 57.5047C615.352 53.6157 615.352 49.6217 615.352 45.5225H665.12V59.6594C661.897 59.6594 658.428 59.6594 654.714 59.6594C651.036 59.6594 646.691 59.6594 641.681 59.6594H624.023L632.274 48.2553C632.274 52.3545 632.274 56.3485 632.274 60.2375C632.274 64.1265 632.274 68.4885 632.274 73.3234V93.2938C632.274 97.9536 632.274 102.193 632.274 106.012C632.274 109.796 632.274 113.702 632.274 117.731L625.127 106.327H642.942C647.112 106.327 651.053 106.327 654.767 106.327C658.516 106.327 662.124 106.327 665.593 106.327V120.464H615.352ZM628.332 89.2472V76.1088H642.049C646.674 76.1088 650.633 76.1088 653.926 76.1088C657.219 76.1088 660.39 76.1088 663.438 76.1088V89.2472C660.215 89.2472 656.957 89.2472 653.663 89.2472C650.37 89.2472 646.498 89.2472 642.049 89.2472H628.332Z" fill="#231337"/>
<path d="M508.793 120.464C509.319 116.54 509.827 112.616 510.317 108.692C510.808 104.768 511.333 100.511 511.894 95.9215L514.994 70.8008C515.59 66.2812 516.133 62.0068 516.623 57.9777C517.114 53.9486 517.622 49.7968 518.148 45.5225H535.648C537.33 49.7968 538.924 53.896 540.43 57.82C541.972 61.709 543.496 65.5805 545.003 69.4344L553.937 92.3479H555.093L563.764 69.487C565.236 65.598 566.69 61.7441 568.126 57.9251C569.598 54.1062 571.139 49.972 572.751 45.5225H590.041C590.567 49.7268 591.075 53.8435 591.565 57.8726C592.091 61.9017 592.651 66.2286 593.247 70.8534L596.453 96.0792C597.013 100.634 597.539 104.838 598.029 108.692C598.555 112.546 599.063 116.47 599.553 120.464H583.104C582.473 115.209 581.86 110.216 581.265 105.486C580.669 100.756 580.126 96.3244 579.635 92.1902L577.428 74.427H576.272L569.755 93.504C568.179 98.1988 566.585 102.859 564.973 107.483C563.396 112.073 561.925 116.4 560.558 120.464H549.102C548.121 117.836 547.052 115.016 545.896 112.003C544.775 108.99 543.619 105.924 542.427 102.806C541.236 99.6528 540.062 96.5697 538.906 93.5566L531.654 74.427H530.498L528.343 92.0851C527.852 96.2544 527.309 100.721 526.714 105.486C526.153 110.216 525.558 115.209 524.927 120.464H508.793Z" fill="#231337"/>
<path d="M459.662 121.885C452.9 121.885 447.049 120.851 442.109 118.784C437.169 116.682 433.105 113.826 429.917 110.218C426.728 106.574 424.346 102.422 422.769 97.7625C421.228 93.1027 420.457 88.1977 420.457 83.0475C420.457 75.76 421.894 69.1733 424.766 63.2872C427.674 57.3662 431.984 52.6714 437.695 49.2028C443.441 45.7343 450.605 44 459.189 44C465.706 44 471.399 45.016 476.269 47.0481C481.139 49.0452 485.186 51.8305 488.409 55.4042C491.667 58.9778 494.102 63.1121 495.714 67.8069C497.326 72.5017 498.131 77.5468 498.131 82.9423C498.131 90.405 496.642 97.0618 493.664 102.913C490.721 108.764 486.395 113.388 480.684 116.787C474.973 120.185 467.966 121.885 459.662 121.885ZM459.399 107.643C462.868 107.643 465.899 106.994 468.491 105.698C471.084 104.367 473.239 102.545 474.955 100.233C476.672 97.9202 477.951 95.2925 478.792 92.3495C479.668 89.3714 480.106 86.2357 480.106 82.9423C480.106 79.4738 479.633 76.2505 478.687 73.2724C477.776 70.2594 476.427 67.6317 474.64 65.3894C472.888 63.1471 470.733 61.3953 468.176 60.134C465.618 58.8727 462.693 58.2421 459.399 58.2421C456.001 58.2421 452.988 58.8902 450.36 60.1866C447.767 61.4829 445.595 63.2872 443.843 65.5996C442.092 67.8769 440.76 70.5046 439.849 73.4827C438.938 76.4607 438.483 79.6139 438.483 82.9423C438.483 86.2708 438.921 89.424 439.797 92.402C440.673 95.345 441.969 97.9727 443.686 100.285C445.438 102.562 447.61 104.367 450.202 105.698C452.83 106.994 455.896 107.643 459.399 107.643Z" fill="#231337"/>
<path d="M350.414 121.187C350.414 117.158 350.414 113.251 350.414 109.467C350.414 105.683 350.414 101.444 350.414 96.7493V71.3133C350.414 66.4783 350.414 62.1164 350.414 58.2274C350.414 54.3384 350.414 50.3443 350.414 46.2451C352.691 46.2451 355.372 46.2451 358.455 46.2451C361.573 46.2451 364.901 46.2451 368.44 46.2451C371.979 46.2451 375.552 46.2451 379.161 46.2451C385.257 46.2451 390.407 46.9283 394.612 48.2947C398.851 49.6261 402.057 51.8684 404.229 55.0216C406.436 58.1748 407.54 62.4667 407.54 67.8973C407.54 72.2067 406.682 76.0781 404.965 79.5116C403.283 82.9452 400.568 85.6604 396.819 87.6575C393.07 89.6545 388.165 90.653 382.104 90.653L388.778 84.3466L398.974 99.377C400.55 101.689 402.232 104.177 404.019 106.84C405.806 109.467 407.54 112.042 409.222 114.565C410.938 117.053 412.445 119.26 413.741 121.187H394.139C392.247 118.244 390.425 115.423 388.673 112.726C386.921 110.028 385.222 107.4 383.575 104.843L371.436 85.713L381.684 93.5435H364.288V81.1934H376.796C379.599 81.1934 381.946 80.8605 383.838 80.1948C385.765 79.4941 387.219 78.3204 388.2 76.6737C389.181 75.0271 389.672 72.7672 389.672 69.8943C389.672 67.7571 389.356 66.0404 388.726 64.744C388.095 63.4127 387.237 62.3791 386.151 61.6434C385.1 60.9076 383.908 60.4171 382.577 60.1719C381.281 59.9266 379.967 59.804 378.635 59.804H355.091L367.389 48.9779C367.389 53.2173 367.389 57.2814 367.389 61.1704C367.389 65.0243 367.389 69.3162 367.389 74.0461V96.7493C367.389 101.444 367.389 105.683 367.389 109.467C367.389 113.251 367.389 117.158 367.389 121.187H350.414Z" fill="#231337"/>
<path d="M279 121.187C279 117.158 279 113.251 279 109.467C279 105.683 279 101.444 279 96.7493V71.3133C279 66.4783 279 62.1164 279 58.2274C279 54.3384 279 50.3443 279 46.2451C282.048 46.2451 286.13 46.2451 291.245 46.2451C296.395 46.2451 302.334 46.2451 309.061 46.2451C315.122 46.2451 320.185 46.9984 324.249 48.5049C328.348 50.0115 331.414 52.499 333.446 55.9676C335.513 59.4011 336.546 64.0258 336.546 69.8418C336.546 74.7818 335.67 79.1438 333.919 82.9276C332.167 86.6765 329.329 89.6195 325.405 91.7567C321.481 93.8588 316.296 94.9099 309.849 94.9099C308.132 94.9099 306.293 94.9099 304.331 94.9099C302.404 94.9099 300.512 94.9099 298.655 94.9099C296.798 94.9099 295.204 94.9099 293.873 94.9099V81.7715H305.908C308.921 81.7715 311.391 81.3685 313.318 80.5627C315.245 79.7569 316.664 78.5131 317.574 76.8314C318.52 75.1147 318.993 72.9074 318.993 70.2096C318.993 68.0724 318.661 66.3207 317.995 64.9543C317.364 63.5879 316.506 62.5368 315.42 61.801C314.334 61.0653 313.125 60.5573 311.794 60.277C310.497 59.9616 309.183 59.804 307.852 59.804H287.776L296.027 48.9779C296.027 53.0771 296.027 57.0712 296.027 60.9602C296.027 64.8491 296.027 69.2111 296.027 74.0461V96.7493C296.027 101.444 296.027 105.683 296.027 109.467C296.027 113.251 296.027 117.158 296.027 121.187H279Z" fill="#231337"/>
<path fill-rule="evenodd" clip-rule="evenodd" d="M1181.06 72.5319C1180.58 64.152 1200.49 45.1383 1213 37.7227C1218.57 32.1516 1234.92 28.4279 1241.17 34.6814C1247.42 40.9349 1247.17 51.9254 1241.59 57.4964C1224.73 71.4609 1195.15 79.5113 1184.81 76.4516C1179.17 78.6287 1173.31 80.6587 1167.3 82.5502C1175.46 83.4888 1184.55 85.7898 1189.84 88.4453C1196.07 91.5699 1201.59 100.375 1199.06 106.371C1196.52 112.367 1187.97 115.865 1178.52 111.874C1173.76 109.862 1152.9 94.9274 1150.23 87.464C1142.59 89.4756 1134.82 91.2906 1127.04 92.9243C1136.91 94.9023 1148.95 99.951 1156.64 109.031C1161.25 113.634 1161.65 120.689 1157.55 124.79C1153.45 128.89 1144.08 127.248 1139.48 122.645C1127.62 114.413 1112.43 102.161 1110.58 96.1229C1100.21 97.9822 1089.95 99.5389 1080.1 100.827C1088.48 108.466 1101.45 127.539 1103.16 133.93C1105.38 142.198 1102.63 150.118 1097.03 151.619C1091.43 153.12 1085.09 147.634 1082.88 139.365C1082.4 137.591 1081.48 134.729 1080.37 131.311L1080.37 131.31C1077.35 121.962 1073 108.462 1072.82 101.739C1052 104.239 1033.42 105.522 1020.01 105.931C1018.63 105.974 1017.48 104.889 1017.43 103.509C1017.39 102.129 1018.48 100.976 1019.86 100.934C1033.18 100.527 1051.69 99.2466 1072.44 96.7486C1071.02 92.5653 1073.07 80.1408 1074.91 68.9406C1075.47 65.525 1076.02 62.2233 1076.44 59.3038C1079.03 47.7381 1081.05 40.9847 1086.65 39.4838C1092.26 37.9829 1102.02 44.683 1099.59 58.793C1101.51 65.9443 1085.47 89.0406 1077.48 96.1235C1087.66 94.8219 1098.31 93.2302 1109.09 91.3096C1106.55 82.8385 1112.95 49.5735 1115.93 42.5086C1119.27 34.6229 1128.49 30.8879 1133.84 33.1445C1139.18 35.4011 1140.86 49.5414 1137.53 57.4272C1134.99 63.4385 1123.64 82.3716 1116.02 90.0328C1126.26 88.0807 1136.53 85.8311 1146.55 83.2547C1146.33 76.7994 1153.84 60.044 1158.09 50.5592L1158.09 50.5589L1158.09 50.5577L1158.09 50.5523C1159 48.5273 1159.75 46.8342 1160.26 45.6441C1164.7 35.1374 1175.33 31.7991 1180.67 34.0556C1186.01 36.3122 1187.64 44.5341 1184.31 52.4198C1182.09 57.6839 1168.9 71.7813 1158.79 79.9018C1166.48 77.6597 1173.95 75.2078 1181.06 72.5319Z" fill="#89A598"/>
<path fill-rule="evenodd" clip-rule="evenodd" d="M81.6821 72.5319C82.1568 64.152 62.2441 45.1383 49.7355 37.7227C44.1644 32.1516 27.8229 28.4279 21.5694 34.6814C15.3159 40.9349 15.5722 51.9254 21.1433 57.4964C38.0126 71.4609 67.5839 79.5113 77.929 76.4516C83.571 78.6287 89.4307 80.6587 95.4409 82.5502C87.2759 83.4888 78.192 85.7898 72.8968 88.4453C66.6663 91.5699 61.1502 100.375 63.6832 106.371C66.2162 112.367 74.7711 115.865 84.2189 111.874C88.982 109.862 109.839 94.9274 112.507 87.464C120.145 89.4756 127.915 91.2906 135.693 92.9243C125.832 94.9023 113.786 99.951 106.094 109.031C101.491 113.634 101.084 120.689 105.185 124.79C109.285 128.89 118.659 127.248 123.262 122.645C135.123 114.413 150.31 102.161 152.159 96.1229C162.533 97.9822 172.791 99.5389 182.643 100.827C174.256 108.466 161.29 127.539 159.578 133.93C157.362 142.198 160.107 150.118 165.708 151.619C171.31 153.12 177.647 147.634 179.862 139.365C180.337 137.591 181.262 134.729 182.365 131.311L182.365 131.31C185.383 121.962 189.742 108.462 189.919 101.739C210.737 104.239 229.318 105.522 242.73 105.931C244.11 105.974 245.263 104.889 245.305 103.509C245.347 102.129 244.262 100.976 242.882 100.934C229.562 100.527 211.045 99.2466 190.295 96.7486C191.715 92.5653 189.671 80.1408 187.828 68.9406C187.266 65.525 186.722 62.2233 186.302 59.3038C183.707 47.7381 181.685 40.9847 176.083 39.4838C170.482 37.9829 160.714 44.683 163.145 58.793C161.229 65.9443 177.265 89.0406 185.258 96.1235C175.075 94.8219 164.426 93.2302 153.647 91.3096C156.188 82.8385 149.788 49.5735 146.804 42.5086C143.473 34.6229 134.244 30.8879 128.902 33.1445C123.56 35.4011 121.875 49.5414 125.207 57.4272C127.746 63.4385 139.1 82.3716 146.721 90.0328C136.481 88.0807 126.212 85.8311 116.188 83.2547C116.407 76.7994 108.901 60.044 104.653 50.5592L104.653 50.5589L104.652 50.5577L104.65 50.5523C103.743 48.5273 102.984 46.8342 102.481 45.6441C98.0432 35.1374 87.4124 31.7991 82.0704 34.0556C76.7285 36.3122 75.0984 44.5341 78.4295 52.4198C80.6532 57.6839 93.8357 71.7813 103.944 79.9018C96.2569 77.6597 88.7916 75.2078 81.6821 72.5319Z" fill="#89A598"/>
</svg>
