<svg width="95" height="95" viewBox="0 0 95 95" fill="none" xmlns="http://www.w3.org/2000/svg">
<path d="M67.2904 83.125V75.2083C67.2904 71.0091 65.6222 66.9818 62.6529 64.0125C59.6836 61.0432 55.6563 59.375 51.457 59.375H19.7904C15.5911 59.375 11.5638 61.0432 8.59451 64.0125C5.62518 66.9818 3.95703 71.0091 3.95703 75.2083V83.125" stroke="white" stroke-width="6" stroke-linecap="round" stroke-linejoin="round"/>
<path d="M35.6263 43.5417C44.3708 43.5417 51.4596 36.4528 51.4596 27.7083C51.4596 18.9638 44.3708 11.875 35.6263 11.875C26.8818 11.875 19.793 18.9638 19.793 27.7083C19.793 36.4528 26.8818 43.5417 35.6263 43.5417Z" stroke="white" stroke-width="6" stroke-linecap="round" stroke-linejoin="round"/>
<path d="M91.043 83.1251V75.2084C91.0404 71.7002 89.8727 68.2923 87.7234 65.5196C85.574 62.747 82.5647 60.7667 79.168 59.8896" stroke="white" stroke-width="6" stroke-linecap="round" stroke-linejoin="round"/>
<path d="M63.332 12.3896C66.7378 13.2617 69.7566 15.2424 71.9123 18.0196C74.068 20.7968 75.2381 24.2125 75.2381 27.7282C75.2381 31.2439 74.068 34.6595 71.9123 37.4368C69.7566 40.214 66.7378 42.1947 63.332 43.0667" stroke="white" stroke-width="6" stroke-linecap="round" stroke-linejoin="round"/>
</svg>
